<?xml version="1.0" encoding="UTF-8" standalone="no"?>
<!-- Created with Inkscape (http://www.inkscape.org/) -->

<svg
   xmlns:dc="http://purl.org/dc/elements/1.1/"
   xmlns:cc="http://creativecommons.org/ns#"
   xmlns:rdf="http://www.w3.org/1999/02/22-rdf-syntax-ns#"
   xmlns:svg="http://www.w3.org/2000/svg"
   xmlns="http://www.w3.org/2000/svg"
   xmlns:sodipodi="http://sodipodi.sourceforge.net/DTD/sodipodi-0.dtd"
   xmlns:inkscape="http://www.inkscape.org/namespaces/inkscape"
   width="210mm"
   height="297mm"
   id="svg2"
   version="1.1"
   inkscape:version="0.48.5 r10040"
   sodipodi:docname="InfoDifferenceSystemHinfNorm.svg"
   inkscape:export-filename="C:\Users\User\Documents\Lehrstuhl für Regelungstechnik\sssMORdoc\sssMOR\GUI\pictures\InfoDifferenceSystemHinfNorm.png"
   inkscape:export-xdpi="28.034231"
   inkscape:export-ydpi="28.034231">
  <sodipodi:namedview
     id="base"
     pagecolor="#ffffff"
     bordercolor="#666666"
     borderopacity="1.0"
     inkscape:pageopacity="0.0"
     inkscape:pageshadow="2"
     inkscape:zoom="0.35"
     inkscape:cx="350"
     inkscape:cy="520"
     inkscape:document-units="px"
     inkscape:current-layer="layer1"
     showgrid="false"
     inkscape:window-width="1600"
     inkscape:window-height="838"
     inkscape:window-x="-8"
     inkscape:window-y="-8"
     inkscape:window-maximized="1" />
  <defs
     id="defs4" />
  <metadata
     id="metadata7">
    <rdf:RDF>
      <cc:Work
         rdf:about="">
        <dc:format>image/svg+xml</dc:format>
        <dc:type
           rdf:resource="http://purl.org/dc/dcmitype/StillImage" />
        <dc:title></dc:title>
      </cc:Work>
    </rdf:RDF>
  </metadata>
  <g
     id="layer1"
     inkscape:groupmode="layer"
     inkscape:label="Ebene 1">
    <g
       id="g4373">
      <rect
         style="fill:#ffffff;fill-opacity:1;fill-rule:nonzero;stroke:none"
         id="rect2985"
         width="1168.5714"
         height="705.71429"
         x="0"
         y="346.64789" />
      <g
         transform="translate(-181.09251,234.29328)"
         id="g4050">
        <g
           style="font-style:normal;font-variant:normal;font-weight:normal;font-stretch:normal;letter-spacing:normal;word-spacing:normal;text-anchor:start;fill:none;stroke:#000000;stroke-linecap:butt;stroke-linejoin:miter;stroke-miterlimit:10.43299961;stroke-opacity:1;stroke-dasharray:none;stroke-dashoffset:0"
           id="content"
           transform="matrix(1.0629921,0,0,-1.0629921,-186.02362,789.27165)"
           xml:space="preserve"
           stroke-miterlimit="10.433"
           font-style="normal"
           font-variant="normal"
           font-weight="normal"
           font-stretch="normal"
           font-size-adjust="none"
           letter-spacing="normal"
           word-spacing="normal"><path
             style="fill:#000000;stroke-width:0"
             inkscape:connector-curvature="0"
             d="m 477.64,418.65 -0.01,0.5 -0.04,0.49 -0.06,0.48 -0.09,0.48 -0.11,0.46 -0.13,0.46 -0.15,0.45 -0.18,0.44 -0.2,0.43 -0.21,0.42 -0.24,0.4 -0.26,0.39 -0.27,0.38 -0.29,0.37 -0.31,0.35 -0.32,0.34 -0.34,0.32 -0.35,0.3 -0.37,0.29 -0.38,0.27 -0.39,0.25 -0.4,0.23 -0.42,0.22 -0.43,0.19 -0.43,0.18 -0.45,0.15 -0.46,0.13 -0.46,0.11 -0.47,0.08 -0.48,0.06 -0.48,0.04 -0.49,0.01 c -5.37,0 -9.72,-4.43 -9.72,-9.67 0,-5.28 4.35,-9.65 9.72,-9.65 5.24,0 9.67,4.32 9.67,9.65 z"
             id="path4053" /><path
             style="fill:#000000;stroke-width:0"
             inkscape:connector-curvature="0"
             d="m 513.63,409.98 0.02,-0.19 0.03,-0.18 0.04,-0.19 0.04,-0.18 0.05,-0.19 0.05,-0.18 0.06,-0.18 0.07,-0.18 0.08,-0.18 0.08,-0.17 0.09,-0.18 0.09,-0.16 0.1,-0.16 0.11,-0.16 0.11,-0.16 0.12,-0.14 0.13,-0.14 0.13,-0.14 0.14,-0.13 0.14,-0.12 0.15,-0.12 0.16,-0.1 0.16,-0.1 0.17,-0.09 0.18,-0.08 0.18,-0.07 0.19,-0.06 0.19,-0.05 0.2,-0.04 0.2,-0.03 0.21,-0.02 0.22,-0.01 c 1.03,0 4.08,0.71 4.08,4.74 v 2.78 h -1.25 v -2.78 c 0,-2.89 -1.24,-3.19 -1.8,-3.19 -1.64,0 -1.84,2.23 -1.84,2.48 v 9.97 c 0,2.1 0,4.03 -1.78,5.88 -1.96,1.93 -4.44,2.73 -6.83,2.73 -4.1,0 -7.53,-2.33 -7.53,-5.62 0,-1.49 1,-2.35 2.29,-2.35 1.39,0 2.3,1 2.3,2.3 0,0.59 -0.25,2.23 -2.55,2.3 1.35,1.73 3.78,2.28 5.38,2.28 2.45,0 5.28,-1.94 5.28,-6.38 v -1.84 -1.05 -4.98 c 0,-4.74 -3.58,-6.42 -5.83,-6.42 -2.44,0 -4.48,1.75 -4.48,4.23 0,2.73 2.09,6.88 10.31,7.17 h 0 v 1.05 c -2.53,-0.14 -6.02,-0.3 -9.16,-1.8 -3.73,-1.69 -4.98,-4.28 -4.98,-6.47 0,-4.03 4.83,-5.28 7.97,-5.28 3.29,0 5.58,1.99 6.53,4.33 z"
             id="path4055" /><path
             style="fill:#000000;stroke-width:0"
             inkscape:connector-curvature="0"
             d="m 530.55,424.98 v 15.8 l -7.17,-0.55 v -1.55 c 3.49,0 3.89,-0.34 3.89,-2.79 V 406.2 h 1.25 c 0.05,0.05 0.44,0.75 1.78,3.09 0.75,-1.15 2.85,-3.64 6.54,-3.64 l -0.21,1.1 c -2.23,0 -4.03,1.2 -5.22,3.04 -0.7,1.05 -0.7,1.19 -0.7,2.08 h 0 v 10.27 c 0,0.95 0,1 0.55,1.79 1.94,2.8 4.69,3.19 5.87,3.19 2.25,0 4.05,-1.3 5.24,-3.19 1.29,-2.04 1.45,-4.87 1.45,-6.92 0,-1.84 -0.11,-4.83 -1.55,-7.08 -1.04,-1.54 -2.93,-3.18 -5.64,-3.18 l 0.21,-1.1 c 5.93,0 11.11,4.88 11.11,11.31 0,6.33 -4.88,11.25 -10.57,11.25 -3.87,0 -6.03,-2.34 -6.83,-3.23 z"
             id="path4057" /><path
             style="fill:#000000;stroke-width:0"
             inkscape:connector-curvature="0"
             d="m 560.07,415.87 0.11,-0.02 0.13,-0.02 0.14,-0.03 0.16,-0.04 0.17,-0.04 0.18,-0.04 0.18,-0.05 0.2,-0.06 0.21,-0.06 0.21,-0.07 0.21,-0.08 0.22,-0.08 0.22,-0.1 0.22,-0.1 0.23,-0.11 0.21,-0.12 0.22,-0.14 0.21,-0.14 0.21,-0.15 0.19,-0.16 0.19,-0.18 0.19,-0.19 0.16,-0.2 0.16,-0.21 0.14,-0.22 0.07,-0.12 0.06,-0.12 0.06,-0.13 0.06,-0.12 0.04,-0.14 0.05,-0.13 0.04,-0.14 0.04,-0.14 0.03,-0.15 0.02,-0.15 0.02,-0.16 0.02,-0.15 0.01,-0.17 0,-0.16 c 0,-2.53 -1.75,-4.53 -5.63,-4.53 -4.18,0 -5.98,2.84 -6.93,7.07 -0.15,0.64 -0.19,0.85 -0.69,0.85 -0.66,0 -0.66,-0.35 -0.66,-1.25 v -6.58 c 0,-0.84 0,-1.19 0.55,-1.19 0.25,0 0.3,0.05 1.25,1 0.09,0.1 0.09,0.19 1,1.14 2.19,-2.09 4.44,-2.14 5.48,-2.14 5.72,0 8.02,3.35 8.02,6.92 0,2.64 -1.5,4.14 -2.1,4.74 -1.64,1.59 -3.59,2 -5.68,2.39 -2.78,0.55 -6.13,1.2 -6.13,4.09 0,1.74 1.3,3.78 5.58,3.78 5.48,0 5.73,-4.48 5.83,-6.03 0.06,-0.45 0.5,-0.45 0.61,-0.45 0.64,0 0.64,0.25 0.64,1.2 v 5.03 c 0,0.85 0,1.19 -0.55,1.19 -0.25,0 -0.34,0 -1,-0.59 -0.14,-0.21 -0.64,-0.64 -0.84,-0.8 -1.89,1.39 -3.94,1.39 -4.69,1.39 -6.08,0 -7.97,-3.33 -7.97,-6.12 0,-1.74 0.8,-3.14 2.14,-4.24 1.6,-1.29 3,-1.59 6.58,-2.28 z"
             id="path4059" /><path
             style="fill:#000000;stroke-width:0"
             inkscape:connector-curvature="0"
             d="m 592.86,416.86 -0.02,0.59 -0.04,0.59 -0.07,0.58 -0.1,0.57 -0.12,0.56 -0.15,0.55 -0.18,0.54 -0.19,0.53 -0.23,0.51 -0.24,0.5 -0.27,0.49 -0.29,0.47 -0.3,0.46 -0.33,0.44 -0.35,0.43 -0.37,0.4 -0.38,0.39 -0.4,0.37 -0.42,0.35 -0.43,0.32 -0.45,0.31 -0.46,0.28 -0.47,0.26 -0.49,0.24 -0.5,0.21 -0.51,0.18 -0.52,0.16 -0.53,0.13 -0.54,0.11 -0.55,0.07 -0.55,0.05 -0.57,0.01 -0.04,-1.09 c 2.18,0 4.33,-1.1 5.62,-3.24 1.3,-2.14 1.3,-5.03 1.3,-6.92 0,-1.8 0,-4.48 -1.09,-6.67 -1.1,-2.25 -3.29,-3.69 -5.79,-3.69 h 0 c -2.14,0 -4.32,1.05 -5.67,3.33 -1.25,2.2 -1.25,5.23 -1.25,7.03 0,1.94 0,4.63 1.19,6.83 1.36,2.28 3.69,3.33 5.69,3.33 l 0.04,1.09 c -6.21,0 -11.06,-5.42 -11.06,-11.65 0,-6.43 5.19,-11.21 11.02,-11.21 6.03,0 11.06,4.88 11.06,11.21 z"
             id="path4061" /><path
             style="fill:#000000;stroke-width:0"
             inkscape:connector-curvature="0"
             d="m 603.16,440.78 -7.17,-0.55 v -1.55 c 3.48,0 3.89,-0.34 3.89,-2.79 v -25.91 c 0,-2.23 -0.55,-2.23 -3.89,-2.23 v -1.55 c 1.64,0.05 4.28,0.16 5.53,0.16 1.25,0 3.69,-0.11 5.53,-0.16 v 1.55 c -3.34,0 -3.89,0 -3.89,2.23 z"
             id="path4063" /><path
             style="fill:#000000;stroke-width:0"
             inkscape:connector-curvature="0"
             d="m 627.63,410.14 v -4.49 l 7.17,0.55 v 1.55 c -3.48,0 -3.89,0.34 -3.89,2.78 v 17.68 l -7.33,-0.54 v -1.55 c 3.5,0 3.89,-0.34 3.89,-2.78 v -8.88 c 0,-4.32 -2.39,-7.71 -6.03,-7.71 -4.17,0 -4.37,2.34 -4.37,4.93 v 16.53 l -7.33,-0.54 v -1.55 c 3.89,0 3.89,-0.14 3.89,-4.58 v -7.47 c 0,-3.89 0,-8.42 7.56,-8.42 2.8,0 4.99,1.39 6.44,4.49 z"
             id="path4065" /><path
             style="fill:#000000;stroke-width:0"
             inkscape:connector-curvature="0"
             d="m 644.49,426.12 h 7.12 v 1.55 h -7.12 v 9.17 h -1.25 c -0.05,-4.08 -1.55,-9.42 -6.42,-9.61 v -1.11 h 4.23 v -13.75 c 0,-6.12 4.63,-6.72 6.42,-6.72 3.53,0 4.94,3.53 4.94,6.72 v 2.84 h -1.25 v -2.73 c 0,-3.69 -1.5,-5.58 -3.34,-5.58 -3.33,0 -3.33,4.53 -3.33,5.38 z"
             id="path4067" /><path
             style="fill:#000000;stroke-width:0"
             inkscape:connector-curvature="0"
             d="m 660.71,417.71 0.05,1.05 c 0.29,7.42 4.48,8.66 6.19,8.66 5.12,0 5.62,-6.72 5.62,-8.66 h -11.81 l -0.05,-1.05 h 13.91 c 1.09,0 1.23,0 1.23,1.05 0,4.92 -2.69,9.75 -8.9,9.75 -5.79,0 -10.38,-5.12 -10.38,-11.36 0,-6.67 5.23,-11.5 10.97,-11.5 6.08,0 8.31,5.53 8.31,6.47 0,0.5 -0.39,0.61 -0.64,0.61 -0.45,0 -0.55,-0.3 -0.66,-0.7 -1.73,-5.13 -6.21,-5.13 -6.71,-5.13 -2.5,0 -4.49,1.49 -5.63,3.33 -1.5,2.39 -1.5,5.69 -1.5,7.48 z"
             id="path4069" /><path
             style="fill:#000000;stroke-width:0"
             inkscape:connector-curvature="0"
             d="m 686.82,425.03 0,0.13 -0.01,0.14 -0.02,0.13 -0.02,0.13 -0.03,0.13 -0.04,0.12 -0.04,0.12 -0.05,0.12 -0.05,0.12 -0.06,0.11 -0.06,0.11 -0.07,0.11 -0.08,0.1 -0.07,0.1 -0.09,0.1 -0.09,0.09 -0.09,0.09 -0.09,0.08 -0.1,0.08 -0.11,0.08 -0.1,0.06 -0.11,0.07 -0.12,0.06 -0.11,0.05 -0.12,0.05 -0.13,0.04 -0.12,0.03 -0.13,0.03 -0.13,0.03 -0.13,0.01 -0.13,0.01 -0.14,0.01 c -1.44,0 -2.64,-1.19 -2.64,-2.64 0,-1.44 1.2,-2.64 2.64,-2.64 1.45,0 2.64,1.2 2.64,2.64 z"
             id="path4071" /><path
             style="fill:#000000;stroke-width:0"
             inkscape:connector-curvature="0"
             d="m 686.82,408.84 0,0.13 -0.01,0.14 -0.02,0.13 -0.02,0.13 -0.03,0.12 -0.04,0.13 -0.04,0.12 -0.05,0.12 -0.05,0.12 -0.06,0.11 -0.06,0.11 -0.07,0.11 -0.08,0.1 -0.07,0.1 -0.09,0.1 -0.09,0.09 -0.09,0.09 -0.09,0.08 -0.1,0.08 -0.11,0.07 -0.1,0.07 -0.11,0.07 -0.12,0.06 -0.11,0.05 -0.12,0.05 -0.13,0.04 -0.12,0.04 -0.13,0.03 -0.13,0.02 -0.13,0.02 -0.13,0.01 -0.14,0 c -1.44,0 -2.64,-1.2 -2.64,-2.64 0,-1.44 1.2,-2.64 2.64,-2.64 1.45,0 2.64,1.2 2.64,2.64 z"
             id="path4073" /></g>      </g>
      <g
         id="g4171"
         transform="translate(-181.09251,394.29328)">
        <g
           word-spacing="normal"
           letter-spacing="normal"
           font-size-adjust="none"
           font-stretch="normal"
           font-weight="normal"
           font-variant="normal"
           font-style="normal"
           stroke-miterlimit="10.433"
           xml:space="preserve"
           transform="matrix(1.0629921,0,0,-1.0629921,-186.02362,789.27165)"
           id="g4173"
           style="font-style:normal;font-variant:normal;font-weight:normal;font-stretch:normal;letter-spacing:normal;word-spacing:normal;text-anchor:start;fill:none;stroke:#000000;stroke-linecap:butt;stroke-linejoin:miter;stroke-miterlimit:10.43299961;stroke-opacity:1;stroke-dasharray:none;stroke-dashoffset:0"><path
             id="path4175"
             d="m 477.64,418.65 -0.01,0.5 -0.04,0.49 -0.06,0.48 -0.09,0.48 -0.11,0.46 -0.13,0.46 -0.15,0.45 -0.18,0.44 -0.2,0.43 -0.21,0.42 -0.24,0.4 -0.26,0.39 -0.27,0.38 -0.29,0.37 -0.31,0.35 -0.32,0.34 -0.34,0.32 -0.35,0.3 -0.37,0.29 -0.38,0.27 -0.39,0.25 -0.4,0.23 -0.42,0.22 -0.43,0.19 -0.43,0.18 -0.45,0.15 -0.46,0.13 -0.46,0.11 -0.47,0.08 -0.48,0.06 -0.48,0.04 -0.49,0.01 c -5.37,0 -9.72,-4.43 -9.72,-9.67 0,-5.28 4.35,-9.65 9.72,-9.65 5.24,0 9.67,4.32 9.67,9.65 z"
             inkscape:connector-curvature="0"
             style="fill:#000000;stroke-width:0" /><path
             id="path4177"
             d="m 505.35,422.75 v 5.46 l -6.92,-0.54 v -1.55 c 3.48,0 3.89,-0.34 3.89,-2.78 v -13.36 c 0,-2.23 -0.55,-2.23 -3.89,-2.23 v -1.55 c 1.95,0.05 4.28,0.16 5.68,0.16 1.99,0 4.33,0 6.33,-0.16 v 1.55 h -1.05 c -3.68,0 -3.79,0.54 -3.79,2.34 v 7.67 c 0,4.92 2.09,9.36 5.89,9.36 0.34,0 0.44,0 0.54,-0.05 -0.15,-0.04 -1.15,-0.64 -1.15,-1.93 0,-1.41 1.05,-2.14 2.15,-2.14 0.9,0 2.15,0.59 2.15,2.18 0,1.6 -1.55,3.03 -3.69,3.03 -3.64,0 -5.44,-3.32 -6.14,-5.46 z"
             inkscape:connector-curvature="0"
             style="fill:#000000;stroke-width:0" /><path
             id="path4179"
             d="m 522.13,417.71 0.04,1.05 c 0.3,7.42 4.49,8.66 6.19,8.66 5.12,0 5.62,-6.72 5.62,-8.66 h -11.81 l -0.04,-1.05 h 13.9 c 1.1,0 1.24,0 1.24,1.05 0,4.92 -2.69,9.75 -8.91,9.75 -5.78,0 -10.38,-5.12 -10.38,-11.36 0,-6.67 5.24,-11.5 10.97,-11.5 6.08,0 8.32,5.53 8.32,6.47 0,0.5 -0.39,0.61 -0.64,0.61 -0.46,0 -0.55,-0.3 -0.66,-0.7 -1.74,-5.13 -6.22,-5.13 -6.72,-5.13 -2.5,0 -4.48,1.49 -5.62,3.33 -1.5,2.39 -1.5,5.69 -1.5,7.48 z"
             inkscape:connector-curvature="0"
             style="fill:#000000;stroke-width:0" /><path
             id="path4181"
             d="m 547.48,440.78 -7.17,-0.55 v -1.55 c 3.49,0 3.89,-0.34 3.89,-2.79 v -25.91 c 0,-2.23 -0.54,-2.23 -3.89,-2.23 v -1.55 c 1.64,0.05 4.28,0.16 5.53,0.16 1.25,0 3.69,-0.11 5.54,-0.16 v 1.55 c -3.35,0 -3.9,0 -3.9,2.23 z"
             inkscape:connector-curvature="0"
             style="fill:#000000;stroke-width:0" /><path
             id="path4183"
             d="m 569.06,409.98 0.03,-0.19 0.02,-0.18 0.04,-0.19 0.04,-0.18 0.05,-0.19 0.06,-0.18 0.06,-0.18 0.07,-0.18 0.07,-0.18 0.08,-0.17 0.09,-0.18 0.09,-0.16 0.11,-0.16 0.1,-0.16 0.12,-0.16 0.12,-0.14 0.12,-0.14 0.13,-0.14 0.14,-0.13 0.15,-0.12 0.15,-0.12 0.15,-0.1 0.17,-0.1 0.16,-0.09 0.18,-0.08 0.18,-0.07 0.19,-0.06 0.19,-0.05 0.2,-0.04 0.21,-0.03 0.21,-0.02 0.21,-0.01 c 1.03,0 4.08,0.71 4.08,4.74 v 2.78 h -1.25 v -2.78 c 0,-2.89 -1.23,-3.19 -1.8,-3.19 -1.64,0 -1.84,2.23 -1.84,2.48 v 9.97 c 0,2.1 0,4.03 -1.78,5.88 -1.95,1.93 -4.44,2.73 -6.83,2.73 -4.09,0 -7.53,-2.33 -7.53,-5.62 0,-1.49 1,-2.35 2.3,-2.35 1.39,0 2.29,1 2.29,2.3 0,0.59 -0.25,2.23 -2.54,2.3 1.34,1.73 3.78,2.28 5.37,2.28 2.46,0 5.28,-1.94 5.28,-6.38 v -1.84 -1.05 -4.98 c 0,-4.74 -3.57,-6.42 -5.82,-6.42 -2.44,0 -4.49,1.75 -4.49,4.23 0,2.73 2.09,6.88 10.31,7.17 h 0 v 1.05 c -2.53,-0.14 -6.01,-0.3 -9.15,-1.8 -3.74,-1.69 -4.99,-4.28 -4.99,-6.47 0,-4.03 4.83,-5.28 7.97,-5.28 3.3,0 5.58,1.99 6.53,4.33 z"
             inkscape:connector-curvature="0"
             style="fill:#000000;stroke-width:0" /><path
             id="path4185"
             d="m 586.05,426.12 h 7.13 v 1.55 h -7.13 v 9.17 h -1.25 c -0.05,-4.08 -1.55,-9.42 -6.42,-9.61 v -1.11 h 4.23 v -13.75 c 0,-6.12 4.63,-6.72 6.42,-6.72 3.54,0 4.94,3.53 4.94,6.72 v 2.84 h -1.25 v -2.73 c 0,-3.69 -1.5,-5.58 -3.34,-5.58 -3.33,0 -3.33,4.53 -3.33,5.38 z"
             inkscape:connector-curvature="0"
             style="fill:#000000;stroke-width:0" /><path
             id="path4187"
             d="m 605.55,428.21 -6.96,-0.54 v -1.55 c 3.23,0 3.68,-0.3 3.68,-2.73 v -13.41 c 0,-2.23 -0.54,-2.23 -3.89,-2.23 v -1.55 c 1.6,0.05 4.28,0.16 5.49,0.16 1.75,0 3.48,-0.11 5.18,-0.16 v 1.55 c -3.29,0 -3.5,0.25 -3.5,2.18 z"
             inkscape:connector-curvature="0"
             style="fill:#000000;stroke-width:0" /><path
             id="path4189"
             d="m 605.76,436.89 -0.01,0.14 -0.01,0.15 -0.01,0.14 -0.03,0.14 -0.03,0.13 -0.04,0.13 -0.04,0.13 -0.05,0.12 -0.05,0.12 -0.06,0.12 -0.07,0.11 -0.07,0.1 -0.08,0.1 -0.08,0.1 -0.08,0.1 -0.09,0.08 -0.09,0.09 -0.1,0.08 -0.1,0.07 -0.11,0.07 -0.1,0.07 -0.11,0.06 -0.12,0.05 -0.11,0.05 -0.12,0.04 -0.12,0.04 -0.13,0.03 -0.12,0.03 -0.13,0.02 -0.12,0.01 -0.13,0.01 -0.13,0.01 c -1.55,0 -2.64,-1.35 -2.64,-2.64 0,-1.35 1.09,-2.64 2.64,-2.64 1.39,0 2.64,1.04 2.64,2.64 z"
             inkscape:connector-curvature="0"
             style="fill:#000000;stroke-width:0" /><path
             id="path4191"
             d="m 631.26,422.79 0.04,0.11 0.05,0.12 0.05,0.12 0.05,0.12 0.06,0.13 0.06,0.13 0.06,0.13 0.07,0.14 0.08,0.13 0.08,0.14 0.09,0.14 0.09,0.14 0.1,0.13 0.11,0.14 0.12,0.13 0.12,0.13 0.13,0.12 0.14,0.13 0.15,0.11 0.16,0.12 0.17,0.11 0.18,0.1 0.19,0.09 0.2,0.09 0.21,0.08 0.22,0.07 0.24,0.07 0.25,0.05 0.26,0.05 0.13,0.01 0.14,0.02 0.14,0.01 0.15,0.01 0.15,0.01 0.15,0 v 1.55 c -1.15,-0.1 -2.59,-0.14 -3.73,-0.14 -1.21,0 -3.5,0.09 -4.35,0.14 v -1.55 c 1.85,-0.05 2.39,-1.19 2.39,-2.14 0,-0.44 -0.09,-0.64 -0.29,-1.19 l -5.08,-12.7 -5.58,13.89 c -0.3,0.66 -0.3,0.75 -0.3,0.86 0,1.28 1.94,1.28 2.83,1.28 v 1.55 c -1.48,-0.05 -4.28,-0.14 -5.42,-0.14 -1.34,0 -3.34,0.04 -4.83,0.14 v -1.55 c 3.13,0 3.33,-0.3 3.99,-1.84 l 7.17,-17.67 c 0.3,-0.71 0.39,-0.96 1.05,-0.96 0.64,0 0.84,0.46 1.04,0.96 z"
             inkscape:connector-curvature="0"
             style="fill:#000000;stroke-width:0" /><path
             id="path4193"
             d="m 640.91,417.71 0.05,1.05 c 0.29,7.42 4.48,8.66 6.19,8.66 5.12,0 5.62,-6.72 5.62,-8.66 h -11.81 l -0.05,-1.05 h 13.91 c 1.09,0 1.23,0 1.23,1.05 0,4.92 -2.69,9.75 -8.9,9.75 -5.79,0 -10.38,-5.12 -10.38,-11.36 0,-6.67 5.23,-11.5 10.97,-11.5 6.08,0 8.31,5.53 8.31,6.47 0,0.5 -0.39,0.61 -0.64,0.61 -0.45,0 -0.55,-0.3 -0.66,-0.7 -1.73,-5.13 -6.22,-5.13 -6.72,-5.13 -2.5,0 -4.48,1.49 -5.62,3.33 -1.5,2.39 -1.5,5.69 -1.5,7.48 z"
             inkscape:connector-curvature="0"
             style="fill:#000000;stroke-width:0" /><path
             id="path4195"
             d="m 667.02,425.03 0,0.13 -0.01,0.14 -0.02,0.13 -0.02,0.13 -0.03,0.13 -0.04,0.12 -0.04,0.12 -0.05,0.12 -0.05,0.12 -0.06,0.11 -0.06,0.11 -0.07,0.11 -0.08,0.1 -0.07,0.1 -0.09,0.1 -0.09,0.09 -0.09,0.09 -0.09,0.08 -0.1,0.08 -0.11,0.08 -0.1,0.06 -0.11,0.07 -0.12,0.06 -0.12,0.05 -0.12,0.05 -0.12,0.04 -0.12,0.03 -0.13,0.03 -0.13,0.03 -0.13,0.01 -0.14,0.01 -0.13,0.01 c -1.44,0 -2.64,-1.19 -2.64,-2.64 0,-1.44 1.2,-2.64 2.64,-2.64 1.45,0 2.64,1.2 2.64,2.64 z"
             inkscape:connector-curvature="0"
             style="fill:#000000;stroke-width:0" /><path
             id="path4197"
             d="m 667.02,408.84 0,0.13 -0.01,0.14 -0.02,0.13 -0.02,0.13 -0.03,0.12 -0.04,0.13 -0.04,0.12 -0.05,0.12 -0.05,0.12 -0.06,0.11 -0.06,0.11 -0.07,0.11 -0.08,0.1 -0.07,0.1 -0.09,0.1 -0.09,0.09 -0.09,0.09 -0.09,0.08 -0.1,0.08 -0.11,0.07 -0.1,0.07 -0.11,0.07 -0.12,0.06 -0.12,0.05 -0.12,0.05 -0.12,0.04 -0.12,0.04 -0.13,0.03 -0.13,0.02 -0.13,0.02 -0.14,0.01 -0.13,0 c -1.44,0 -2.64,-1.2 -2.64,-2.64 0,-1.44 1.2,-2.64 2.64,-2.64 1.45,0 2.64,1.2 2.64,2.64 z"
             inkscape:connector-curvature="0"
             style="fill:#000000;stroke-width:0" /></g>      </g>
      <g
         transform="translate(149.74725,390.14341)"
         id="g3498">
        <g
           style="font-style:normal;font-variant:normal;font-weight:normal;font-stretch:normal;letter-spacing:normal;word-spacing:normal;text-anchor:start;fill:none;stroke:#000000;stroke-linecap:butt;stroke-linejoin:miter;stroke-miterlimit:10.43299961;stroke-opacity:1;stroke-dasharray:none;stroke-dashoffset:0"
           id="g3500"
           transform="matrix(1.0629921,0,0,-1.0629921,-186.02362,789.27165)"
           xml:space="preserve"
           stroke-miterlimit="10.433"
           font-style="normal"
           font-variant="normal"
           font-weight="normal"
           font-stretch="normal"
           font-size-adjust="none"
           letter-spacing="normal"
           word-spacing="normal"><path
             style="fill:#000000;stroke-width:0"
             inkscape:connector-curvature="0"
             d="m 493.54,428.35 0.04,0.16 0.04,0.16 0.04,0.15 0.04,0.14 0.04,0.14 0.04,0.13 0.04,0.12 0.05,0.12 0.05,0.1 0.05,0.11 0.06,0.09 0.07,0.09 0.07,0.09 0.08,0.08 0.09,0.07 0.09,0.07 0.11,0.06 0.11,0.06 0.13,0.05 0.14,0.05 0.15,0.05 0.16,0.03 0.09,0.02 0.09,0.02 0.09,0.01 0.1,0.02 0.1,0.01 0.1,0.01 0.11,0.02 0.11,0.01 0.12,0.01 0.12,0.01 0.13,0 0.13,0.01 0.13,0.01 0.14,0 0.14,0.01 0.15,0 0.15,0 0.16,0 0.16,0 0.17,0 c 1.3,0 1.69,0 1.69,1 0,0.55 -0.55,0.55 -0.7,0.55 -1.39,0 -4.97,-0.15 -6.38,-0.15 -1.44,0 -4.98,0.15 -6.42,0.15 -0.39,0 -0.95,0 -0.95,-1 0,-0.55 0.45,-0.55 1.4,-0.55 0.1,0 1.05,0 1.89,-0.09 0.89,-0.11 1.35,-0.16 1.35,-0.8 0,-0.2 -0.05,-0.31 -0.21,-0.95 l -2.98,-12.16 h -15.2 l 2.95,11.71 c 0.44,1.79 0.59,2.29 4.17,2.29 1.3,0 1.71,0 1.71,1 0,0.55 -0.55,0.55 -0.71,0.55 -1.39,0 -4.98,-0.15 -6.37,-0.15 -1.44,0 -4.99,0.15 -6.42,0.15 -0.41,0 -0.96,0 -0.96,-1 0,-0.55 0.46,-0.55 1.39,-0.55 0.11,0 1.05,0 1.91,-0.09 0.89,-0.11 1.34,-0.16 1.34,-0.8 0,-0.2 -0.06,-0.36 -0.2,-0.95 l -6.67,-26.75 c -0.5,-1.95 -0.61,-2.34 -4.55,-2.34 -0.89,0 -1.34,0 -1.34,-1 0,-0.55 0.61,-0.55 0.7,-0.55 1.39,0 4.94,0.16 6.33,0.16 1.05,0 2.14,-0.07 3.19,-0.07 1.09,0 2.18,-0.09 3.23,-0.09 0.41,0 1,0 1,1 0,0.55 -0.45,0.55 -1.39,0.55 -1.84,0 -3.23,0 -3.23,0.89 0,0.29 0.09,0.54 0.14,0.84 l 3.39,13.66 H 486 c -2.09,-8.27 -3.23,-13 -3.43,-13.75 -0.49,-1.6 -1.44,-1.64 -4.53,-1.64 -0.75,0 -1.19,0 -1.19,-1 0,-0.55 0.59,-0.55 0.69,-0.55 1.4,0 4.93,0.16 6.32,0.16 1.05,0 2.14,-0.07 3.19,-0.07 1.11,0 2.2,-0.09 3.25,-0.09 0.39,0 0.99,0 0.99,1 0,0.55 -0.44,0.55 -1.4,0.55 -1.84,0 -3.23,0 -3.23,0.89 0,0.29 0.09,0.54 0.14,0.84 z"
             id="path3502" /><path
             style="fill:#000000;stroke-width:0"
             inkscape:connector-curvature="0"
             d="m 517.06,400.27 -0.17,0.19 -0.16,0.19 -0.15,0.18 -0.15,0.17 -0.15,0.17 -0.13,0.16 -0.13,0.15 -0.13,0.14 -0.12,0.14 -0.12,0.13 -0.12,0.12 -0.11,0.12 -0.11,0.12 -0.1,0.11 -0.11,0.1 -0.1,0.11 -0.2,0.19 -0.19,0.18 -0.2,0.18 -0.2,0.16 -0.2,0.17 -0.22,0.16 -0.11,0.09 -0.11,0.08 -0.12,0.09 -0.12,0.08 c -2.13,1.55 -4.35,2.13 -6.27,2.13 -4.33,0 -7.45,-3.69 -7.45,-7.88 h 0.97 c 0,3.36 2.72,5.97 5.92,5.97 3.25,0 5.47,-2.65 8.81,-6.69 h 0 c -1.39,-2.26 -4.42,-5.79 -8.67,-5.79 -3.59,0 -6.06,3.17 -6.06,6.51 h -0.97 c 0,-4.06 2.98,-7.82 7.34,-7.82 4.85,0 8.24,3.96 9.49,5.81 1.84,-2.16 2.4,-2.75 3.72,-3.69 2.12,-1.53 4.36,-2.12 6.28,-2.12 4.31,0 7.45,3.68 7.45,7.87 h -0.97 c 0,-3.34 -2.72,-5.97 -5.92,-5.97 -3.25,0 -5.48,2.66 -8.83,6.7 h 0 c 1.41,2.25 4.44,5.79 8.69,5.79 3.58,0 6.06,-3.18 6.06,-6.52 h 0.97 c 0,4.08 -3,7.83 -7.34,7.83 -4.85,0 -8.24,-3.97 -9.49,-5.81 z"
             id="path3504" /><path
             style="fill:#000000;stroke-width:0"
             inkscape:connector-curvature="0"
             d="m 544,391.28 0,-0.36 -0.02,-0.37 -0.03,-0.38 -0.04,-0.38 -0.03,-0.2 -0.04,-0.19 -0.03,-0.2 -0.05,-0.2 -0.05,-0.19 -0.05,-0.2 -0.07,-0.2 -0.06,-0.21 -0.08,-0.2 -0.08,-0.2 -0.09,-0.2 -0.1,-0.21 -0.11,-0.2 -0.11,-0.21 -0.13,-0.21 -0.13,-0.2 -0.14,-0.21 -0.15,-0.21 -0.16,-0.2 -0.17,-0.21 -0.19,-0.21 -0.19,-0.21 -0.2,-0.21 -0.22,-0.2 c -0.14,-0.14 -0.25,-0.25 -0.25,-0.43 0,-0.25 0.28,-0.48 0.49,-0.48 0.48,0 3.45,2.78 3.45,6.92 0,2.17 -0.84,3.8 -2.44,3.8 -1.15,0 -1.98,-0.91 -1.98,-1.99 0,-1.1 0.79,-2.01 2.01,-2.01 0.85,0 1.39,0.56 1.44,0.56 z"
             id="path3506" /><path
             style="fill:#000000;stroke-width:0"
             inkscape:connector-curvature="0"
             d="m 556.71,397.75 0,0.01 0,0.02 0.01,0.02 0,0.02 0.01,0.03 0.01,0.03 0,0.04 0.01,0.04 0.01,0.04 0.01,0.04 0.01,0.05 0.02,0.05 0.01,0.06 0.01,0.05 0.03,0.12 0.03,0.13 0.04,0.13 0.03,0.14 0.04,0.15 0.04,0.15 0.04,0.15 0.08,0.31 0.08,0.31 0.04,0.16 0.04,0.15 0.04,0.14 0.03,0.14 0.04,0.13 0.03,0.13 0.03,0.11 0.02,0.06 0.01,0.05 0.01,0.05 0.01,0.05 0.02,0.04 0.01,0.04 0.01,0.04 0.01,0.03 0.01,0.03 0,0.03 0.01,0.02 0.01,0.02 0,0.01 0,0.01 c 0.08,0.28 1.08,2.02 2.21,2.86 0.37,0.27 1.31,0.97 2.81,0.97 0.34,0 1.22,-0.03 1.92,-0.48 -1.12,-0.32 -1.53,-1.3 -1.53,-1.93 0,-0.76 0.59,-1.28 1.39,-1.28 0.8,0 1.95,0.66 1.95,2.13 0,1.81 -1.92,2.53 -3.7,2.53 -1.81,0 -3.38,-0.72 -4.91,-2.47 -0.62,2.12 -2.75,2.47 -3.59,2.47 -1.28,0 -2.16,-0.8 -2.72,-1.77 -0.79,-1.36 -1.28,-3.39 -1.28,-3.56 0,-0.45 0.49,-0.45 0.59,-0.45 0.49,0 0.52,0.11 0.77,1.04 0.51,2.13 1.19,3.77 2.55,3.77 0.9,0 1.14,-0.77 1.14,-1.7 0,-0.68 -0.31,-1.96 -0.56,-2.89 -0.24,-0.96 -0.58,-2.38 -0.77,-3.14 l -1.11,-4.47 c -0.14,-0.44 -0.34,-1.32 -0.34,-1.43 0,-0.76 0.62,-1.1 1.18,-1.1 0.52,0 1.22,0.31 1.49,1 0.08,0.21 0.45,1.75 0.67,2.62 z"
             id="path3508" /><path
             style="fill:#000000;stroke-width:0"
             inkscape:connector-curvature="0"
             d="m 575.89,398.66 0.09,0 0.11,0 0.11,0 0.13,0 0.13,0 0.14,0.01 0.15,0 0.16,0.01 0.16,0.01 0.17,0 0.17,0.01 0.18,0.02 0.18,0.01 0.19,0.01 0.39,0.04 0.39,0.04 0.41,0.05 0.4,0.06 0.41,0.07 0.4,0.08 0.2,0.04 0.19,0.05 0.19,0.05 0.19,0.05 0.19,0.06 0.18,0.06 c 2.57,0.91 3.06,2.58 3.06,3.63 0,1.92 -1.92,3.06 -4.33,3.06 v -0.97 c 1.53,0 2.83,-0.77 2.83,-2.09 0,-3.38 -5.89,-3.38 -7.39,-3.38 h -1.7 c 1.42,5.05 5.29,5.47 6.26,5.47 v 0.97 c -4.17,0 -9.83,-3.2 -9.83,-9.16 0,-3.51 2.2,-6.54 6.28,-6.54 5.89,0 8.64,3.43 8.64,3.93 0,0.21 -0.31,0.6 -0.59,0.6 -0.2,0 -0.28,-0.08 -0.56,-0.36 -2.72,-3.21 -6.8,-3.21 -7.42,-3.21 -2.1,0 -3.49,1.39 -3.49,4.22 0,0.49 0,1.19 0.42,3.1 z"
             id="path3510" /><path
             style="fill:#000000;stroke-width:0"
             inkscape:connector-curvature="0"
             d="m 596.74,413.86 0,0 0.01,0.01 0,0 0,0.01 0,0 0,0.01 0,0 0.01,0.01 0,0.01 0,0 0.01,0.02 0,0.02 0.01,0.02 0,0.02 0.01,0.02 0,0.02 0.01,0.02 0.01,0.02 0,0.03 0.01,0.04 0.02,0.05 0,0.02 0.01,0.03 0,0.02 0.01,0.02 0,0.02 0.01,0.02 0,0.01 0,0.02 0,0.01 0.01,0 0,0.01 0,0.01 0,0 0,0.01 0,0 0,0.01 0,0 0,0 0,0 0,0.01 c 0,0.18 -0.14,0.5 -0.56,0.5 -0.69,0 -3.59,-0.28 -4.45,-0.36 -0.25,-0.03 -0.74,-0.07 -0.74,-0.8 0,-0.48 0.49,-0.48 0.88,-0.48 1.67,0 1.67,-0.25 1.67,-0.54 0,-0.23 -0.08,-0.45 -0.14,-0.76 l -4.33,-17.2 c -0.11,-0.36 -0.14,-0.74 -0.14,-1.08 0,-2.24 1.98,-3.31 3.66,-3.31 0.84,0 1.89,0.28 2.79,1.84 0.74,1.28 1.22,3.34 1.22,3.48 0,0.46 -0.45,0.46 -0.56,0.46 -0.48,0 -0.55,-0.21 -0.69,-0.85 -0.45,-1.73 -1.12,-3.97 -2.62,-3.97 -0.94,0 -1.17,0.88 -1.17,1.71 0,0.39 0.09,1.04 0.2,1.43 z"
             id="path3512" /><path
             style="fill:#000000;stroke-width:0"
             inkscape:connector-curvature="0"
             d="m 650.31,414.46 0.14,0 0.15,0 0.14,0 0.07,0.01 0.08,0 0.07,0.01 0.07,0.01 0.07,0.01 0.07,0.01 0.07,0.01 0.06,0.02 0.07,0.02 0.06,0.02 0.06,0.02 0.06,0.03 0.06,0.03 0.05,0.04 0.05,0.04 0.05,0.04 0.04,0.04 0.04,0.05 0.02,0.03 0.02,0.03 0.01,0.02 0.02,0.03 0.01,0.04 0.01,0.03 0.02,0.03 0.01,0.04 0.01,0.03 0.01,0.04 0,0.04 0.01,0.04 0,0.04 0.01,0.04 0,0.05 0,0.04 c 0,1 -0.95,1 -1.64,1 h -29.84 c -0.71,0 -1.64,0 -1.64,-1 0,-0.98 0.93,-0.98 1.68,-0.98 z"
             id="path3514" /><path
             style="fill:#000000;stroke-width:0"
             inkscape:connector-curvature="0"
             d="m 650.36,404.79 0.06,0 0.07,0 0.14,0 0.14,0 0.07,0.01 0.07,0 0.07,0.01 0.06,0.01 0.07,0.01 0.07,0.01 0.07,0.01 0.06,0.02 0.07,0.02 0.06,0.02 0.06,0.02 0.05,0.03 0.06,0.03 0.05,0.04 0.05,0.04 0.05,0.04 0.04,0.05 0.02,0.02 0.02,0.03 0.02,0.02 0.02,0.03 0.01,0.03 0.02,0.03 0.01,0.03 0.01,0.04 0.02,0.03 0.01,0.03 0.01,0.04 0.01,0.04 0,0.04 0.01,0.04 0,0.04 0.01,0.04 0,0.05 0,0.05 c 0,1 -0.95,1 -1.69,1 h -29.75 c -0.75,0 -1.68,0 -1.68,-1 0,-1 0.93,-1 1.64,-1 z"
             id="path3516" /><path
             style="fill:#000000;stroke-width:0"
             inkscape:connector-curvature="0"
             d="m 681.41,454.62 0,0.05 0,0.05 0,0.05 -0.01,0.06 0,0.05 0,0.06 0,0.05 -0.01,0.06 0,0.06 -0.01,0.05 -0.01,0.06 -0.01,0.06 -0.01,0.05 -0.01,0.06 -0.02,0.05 -0.02,0.05 -0.02,0.05 -0.02,0.05 -0.03,0.05 -0.03,0.05 -0.03,0.04 -0.04,0.04 -0.04,0.04 -0.02,0.01 -0.02,0.02 -0.02,0.02 -0.03,0.01 -0.02,0.02 -0.03,0.01 -0.02,0.01 -0.03,0.01 -0.03,0.01 -0.03,0.01 -0.03,0.01 -0.03,0.01 -0.03,0.01 -0.04,0 -0.03,0 -0.04,0.01 -0.04,0 -0.04,0 c -0.87,0 -0.87,-0.81 -0.87,-1.36 v -32.14 c 0,-0.52 0,-1.36 0.84,-1.36 0.88,0 0.88,0.81 0.88,1.36 z"
             id="path3518" /><path
             style="fill:#000000;stroke-width:0"
             inkscape:connector-curvature="0"
             d="m 693.28,454.62 0,0.05 0,0.05 0,0.05 0,0.06 0,0.05 0,0.06 0,0.05 -0.01,0.06 0,0.06 -0.01,0.05 -0.01,0.06 -0.01,0.06 -0.01,0.05 -0.02,0.06 -0.01,0.05 -0.02,0.05 -0.02,0.05 -0.03,0.05 -0.02,0.05 -0.03,0.05 -0.03,0.04 -0.04,0.04 -0.04,0.04 -0.02,0.01 -0.02,0.02 -0.02,0.02 -0.03,0.01 -0.02,0.02 -0.03,0.01 -0.02,0.01 -0.03,0.01 -0.03,0.01 -0.03,0.01 -0.03,0.01 -0.03,0.01 -0.04,0.01 -0.03,0 -0.04,0 -0.03,0.01 -0.04,0 -0.04,0 c -0.87,0 -0.87,-0.81 -0.87,-1.36 v -32.14 c 0,-0.52 0,-1.36 0.84,-1.36 0.87,0 0.87,0.81 0.87,1.36 z"
             id="path3520" /><path
             style="fill:#000000;stroke-width:0"
             inkscape:connector-curvature="0"
             d="m 727.65,453.89 0,0.01 0,0.02 0,0.02 0,0.02 -0.01,0.01 0,0.02 0,0.02 -0.01,0.02 -0.01,0.02 0,0.02 -0.01,0.02 -0.01,0.02 -0.01,0.01 -0.01,0.02 -0.01,0.02 -0.02,0.02 -0.01,0.01 -0.01,0.02 -0.02,0.02 -0.02,0.01 -0.01,0.02 -0.02,0.01 -0.02,0.01 -0.03,0.01 -0.02,0.01 -0.02,0.01 -0.03,0.01 -0.02,0.01 -0.02,0 -0.01,0 -0.01,0.01 -0.02,0 -0.01,0 -0.02,0 -0.02,0 -0.01,0 c -0.25,0 -0.31,-0.08 -0.63,-0.42 l -2.54,-2.69 c -0.31,0.42 -2.27,3.11 -6.55,3.11 -8.47,0 -16.76,-7.5 -16.76,-15.38 0,-5.39 4.1,-9.82 10.79,-9.82 3.08,0 6.31,0.81 8.13,2.76 0.34,-0.76 1.29,-2.03 1.7,-2.03 0.31,0 0.39,0.14 0.56,0.88 l 0.66,2.68 c 0.17,0.63 0.67,2.72 0.76,3.13 0.43,1.58 0.46,1.61 2.52,1.64 0.25,0 0.76,0 0.76,0.73 0,0.35 -0.25,0.52 -0.51,0.52 -1.16,0 -2.62,-0.13 -3.84,-0.13 -0.86,0 -2.02,0 -2.9,0.04 -0.87,0.03 -1.87,0.09 -2.75,0.09 -0.25,0 -0.76,0 -0.76,-0.77 0,-0.48 0.38,-0.48 1.25,-0.48 0.67,0 1.36,0 2.03,-0.06 1.11,-0.11 1.14,-0.25 1.14,-0.68 0,-0.14 0,-0.2 -0.23,-1.1 -0.25,-0.97 -0.64,-2.55 -0.78,-2.9 -1,-2.12 -4.25,-3.06 -6.97,-3.06 -3.49,0 -8.05,1.67 -8.05,7.56 0,3.72 1.75,8.4 4.33,11 3.59,3.57 7.31,4.11 9.26,4.11 4.05,0 6.41,-2.92 6.41,-6.82 0,-0.97 -0.09,-1.22 -0.09,-1.43 0,-0.45 0.45,-0.45 0.62,-0.45 0.56,0 0.56,0.11 0.74,0.77 z"
             id="path3522" /><path
             style="fill:#000000;stroke-width:0"
             inkscape:connector-curvature="0"
             d="m 739.16,440.64 0,0.04 0,0.03 0,0.04 0,0.03 0,0.03 0,0.03 0,0.03 0,0.02 -0.01,0.03 0,0.02 0,0.03 0,0.02 -0.01,0.03 0,0.02 0,0.02 -0.01,0.02 0,0.02 0,0.02 -0.01,0.03 -0.01,0.03 -0.02,0.03 -0.01,0.03 -0.02,0.02 -0.02,0.02 -0.02,0.02 -0.03,0.02 -0.02,0.01 -0.03,0.01 -0.04,0.02 -0.03,0 -0.04,0.01 -0.04,0.01 -0.02,0 -0.03,0 -0.02,0.01 -0.02,0 -0.03,0 -0.02,0 -0.03,0 -0.03,0 -0.03,0 -0.03,0 -0.03,0 -0.03,0 -0.04,0 -0.03,0 -0.03,0 -0.04,0 -0.04,0 -0.04,0 c -1.76,-1.59 -4.53,-1.59 -5.03,-1.59 h -0.42 v -1.09 h 0.42 c 0.58,0 2.19,0.06 3.64,0.68 v -12.45 c 0,-0.76 0,-1.05 -2.64,-1.05 h -1.25 v -1.09 c 1.38,0.09 3.6,0.09 5.03,0.09 1.46,0 3.68,0 5.03,-0.09 v 1.09 h -1.23 c -2.64,0 -2.64,0.29 -2.64,1.05 z"
             id="path3524" /><path
             style="fill:#000000;stroke-width:0"
             inkscape:connector-curvature="0"
             d="m 761.18,455.98 -0.61,-0.45 -0.58,-0.46 -0.55,-0.47 -0.53,-0.49 -0.49,-0.5 -0.48,-0.51 -0.44,-0.53 -0.43,-0.53 -0.4,-0.54 -0.37,-0.55 -0.35,-0.56 -0.34,-0.56 -0.3,-0.57 -0.29,-0.57 -0.27,-0.58 -0.25,-0.58 -0.22,-0.58 -0.21,-0.58 -0.19,-0.59 -0.18,-0.58 -0.15,-0.58 -0.14,-0.58 -0.12,-0.57 -0.11,-0.57 -0.1,-0.57 -0.07,-0.56 -0.07,-0.55 -0.05,-0.54 -0.04,-0.54 -0.03,-0.53 -0.01,-0.51 -0.01,-0.51 c 0,-4.92 1.47,-12.55 8.38,-17.42 0.28,0 0.68,0 0.68,0.4 0,0.22 -0.09,0.29 -0.34,0.54 -4.64,4.18 -6.34,10.1 -6.34,16.45 0,9.4 3.59,14 6.45,16.58 0.14,0.14 0.23,0.25 0.23,0.42 0,0.42 -0.4,0.42 -0.68,0.42 z"
             id="path3526" /><path
             style="fill:#000000;stroke-width:0"
             inkscape:connector-curvature="0"
             d="m 779.41,442.93 -0.08,-0.02 -0.08,-0.02 -0.08,-0.03 -0.08,-0.03 -0.07,-0.03 -0.08,-0.03 -0.07,-0.04 -0.07,-0.04 -0.06,-0.04 -0.07,-0.04 -0.06,-0.05 -0.06,-0.05 -0.06,-0.05 -0.05,-0.05 -0.05,-0.05 -0.05,-0.06 -0.05,-0.05 -0.04,-0.06 -0.04,-0.06 -0.04,-0.06 -0.03,-0.06 -0.04,-0.06 -0.03,-0.06 -0.02,-0.07 -0.03,-0.06 -0.02,-0.06 -0.01,-0.07 -0.02,-0.06 -0.01,-0.07 -0.01,-0.06 0,-0.07 0,-0.06 c 0,-0.81 0.7,-1.13 1.15,-1.13 0.35,0 1.67,0.22 1.67,1.99 0,2.26 -2.5,3.03 -4.62,3.03 -5.44,0 -6.42,-4 -6.42,-5.08 0,-1.3 0.73,-2.12 1.22,-2.55 0.9,-0.7 1.53,-0.82 3.93,-1.25 0.74,-0.14 2.97,-0.56 2.97,-2.29 0,-0.6 -0.39,-1.92 -1.84,-2.8 -1.36,-0.77 -3.08,-0.77 -3.49,-0.77 -1.4,0 -3.39,0.32 -4.18,1.47 1.15,0.14 1.92,1 1.92,1.99 0,0.87 -0.63,1.28 -1.36,1.28 -1.02,0 -2.03,-0.8 -2.03,-2.33 0,-2.09 2.23,-3.37 5.61,-3.37 6.42,0 7.61,4.39 7.61,5.75 0,3.2 -3.54,3.82 -4.82,4.07 -0.31,0.07 -1.18,0.21 -1.39,0.27 -1.29,0.25 -1.92,0.98 -1.92,1.75 0,0.8 0.63,1.73 1.39,2.23 0.94,0.6 2.16,0.66 2.75,0.66 0.74,0 2.55,-0.11 3.31,-1.3 z"
             id="path3528" /><path
             style="fill:#000000;stroke-width:0"
             inkscape:connector-curvature="0"
             d="m 786.38,455.98 -0.02,0 -0.03,0 -0.03,0 -0.02,0 -0.03,0 -0.03,0 -0.02,0 -0.03,-0.01 -0.03,0 -0.03,0 -0.03,-0.01 -0.02,0 -0.03,-0.01 -0.03,-0.01 -0.02,0 -0.03,-0.01 -0.03,-0.01 -0.02,-0.01 -0.02,-0.02 -0.03,-0.01 -0.02,-0.02 -0.02,-0.02 -0.02,-0.02 0,-0.01 -0.01,-0.01 -0.01,-0.01 -0.01,-0.01 -0.01,-0.01 0,-0.02 -0.01,-0.01 0,-0.01 -0.01,-0.02 0,-0.01 -0.01,-0.02 0,-0.01 -0.01,-0.02 0,-0.02 0,-0.01 0,-0.02 0,-0.02 0,-0.02 c 0,-0.17 0.11,-0.28 0.31,-0.53 3,-2.75 6.34,-7.46 6.34,-16.44 0,-7.28 -2.26,-12.8 -6.03,-16.2 -0.58,-0.6 -0.62,-0.63 -0.62,-0.82 0,-0.17 0.11,-0.4 0.45,-0.4 0.42,0 3.74,2.29 6.03,6.65 1.53,2.89 2.55,6.66 2.55,10.74 0,4.9 -1.47,12.53 -8.36,17.42 z"
             id="path3530" /><path
             style="fill:#000000;stroke-width:0"
             inkscape:connector-curvature="0"
             d="m 824.76,437.71 0.05,0.01 0.06,0 0.11,0 0.11,0 0.06,0 0.06,0.01 0.06,0 0.06,0.01 0.06,0.01 0.05,0.01 0.06,0.01 0.06,0.02 0.05,0.01 0.05,0.02 0.05,0.02 0.05,0.03 0.05,0.02 0.05,0.03 0.04,0.03 0.04,0.04 0.04,0.04 0.01,0.02 0.02,0.02 0.02,0.02 0.01,0.03 0.01,0.02 0.02,0.03 0.01,0.02 0.01,0.03 0.01,0.03 0.01,0.03 0.01,0.03 0.01,0.03 0,0.04 0.01,0.03 0,0.04 0.01,0.03 0,0.04 0,0.04 c 0,0.86 -0.8,0.86 -1.39,0.86 h -20.77 c -0.56,0 -1.39,0 -1.39,-0.83 0,-0.88 0.8,-0.88 1.39,-0.88 z"
             id="path3532" /><path
             style="fill:#000000;stroke-width:0"
             inkscape:connector-curvature="0"
             d="m 859.29,453.89 0,0.01 0,0.02 0,0.02 -0.01,0.02 0,0.01 0,0.02 -0.01,0.02 0,0.02 -0.01,0.02 -0.01,0.02 0,0.02 -0.01,0.02 -0.01,0.01 -0.01,0.02 -0.02,0.02 -0.01,0.02 -0.01,0.01 -0.02,0.02 -0.01,0.02 -0.02,0.01 -0.02,0.02 -0.02,0.01 -0.02,0.01 -0.02,0.01 -0.02,0.01 -0.02,0.01 -0.03,0.01 -0.03,0.01 -0.01,0 -0.01,0 -0.02,0.01 -0.01,0 -0.02,0 -0.01,0 -0.02,0 -0.01,0 c -0.25,0 -0.32,-0.08 -0.63,-0.42 l -2.55,-2.69 c -0.31,0.42 -2.26,3.11 -6.54,3.11 -8.47,0 -16.77,-7.5 -16.77,-15.38 0,-5.39 4.11,-9.82 10.8,-9.82 3.08,0 6.31,0.81 8.12,2.76 0.35,-0.76 1.3,-2.03 1.71,-2.03 0.31,0 0.39,0.14 0.56,0.88 l 0.66,2.68 c 0.17,0.63 0.67,2.72 0.76,3.13 0.42,1.58 0.45,1.61 2.52,1.64 0.25,0 0.76,0 0.76,0.73 0,0.35 -0.25,0.52 -0.51,0.52 -1.16,0 -2.63,-0.13 -3.85,-0.13 -0.86,0 -2.01,0 -2.89,0.04 -0.87,0.03 -1.87,0.09 -2.75,0.09 -0.25,0 -0.76,0 -0.76,-0.77 0,-0.48 0.37,-0.48 1.25,-0.48 0.67,0 1.36,0 2.03,-0.06 1.11,-0.11 1.14,-0.25 1.14,-0.68 0,-0.14 0,-0.2 -0.24,-1.1 -0.25,-0.97 -0.64,-2.55 -0.78,-2.9 -1,-2.12 -4.25,-3.06 -6.97,-3.06 -3.48,0 -8.04,1.67 -8.04,7.56 0,3.72 1.75,8.4 4.33,11 3.59,3.57 7.31,4.11 9.26,4.11 4.05,0 6.41,-2.92 6.41,-6.82 0,-0.97 -0.1,-1.22 -0.1,-1.43 0,-0.45 0.46,-0.45 0.63,-0.45 0.56,0 0.56,0.11 0.73,0.77 z"
             id="path3534" /><path
             style="fill:#000000;stroke-width:0"
             inkscape:connector-curvature="0"
             d="m 875.55,429.61 h -1.05 c -0.07,-0.48 -0.32,-2.01 -0.72,-2.26 -0.2,-0.16 -2.29,-0.16 -2.67,-0.16 h -4.87 c 1.64,1.22 3.48,2.61 4.98,3.61 2.24,1.55 4.33,3 4.33,5.64 0,3.19 -3.02,4.95 -6.58,4.95 -3.36,0 -5.82,-1.95 -5.82,-4.39 0,-1.29 1.09,-1.51 1.45,-1.51 0.67,0 1.47,0.45 1.47,1.47 0,0.89 -0.66,1.39 -1.42,1.47 0.68,1.12 2.13,1.87 3.81,1.87 2.4,0 4.42,-1.45 4.42,-3.89 0,-2.09 -1.44,-3.69 -3.36,-5.31 l -6.08,-5.16 c -0.25,-0.22 -0.26,-0.22 -0.29,-0.39 v -0.75 h 11.57 z"
             id="path3536" /><path
             style="fill:#000000;stroke-width:0"
             inkscape:connector-curvature="0"
             d="m 892.7,455.98 -0.61,-0.45 -0.58,-0.46 -0.55,-0.47 -0.53,-0.49 -0.5,-0.5 -0.47,-0.51 -0.45,-0.53 -0.42,-0.53 -0.4,-0.54 -0.37,-0.55 -0.36,-0.56 -0.33,-0.56 -0.31,-0.57 -0.28,-0.57 -0.27,-0.58 -0.25,-0.58 -0.22,-0.58 -0.21,-0.58 -0.19,-0.59 -0.18,-0.58 -0.15,-0.58 -0.14,-0.58 -0.13,-0.57 -0.1,-0.57 -0.1,-0.57 -0.07,-0.56 -0.07,-0.55 -0.05,-0.54 -0.04,-0.54 -0.03,-0.53 -0.01,-0.51 -0.01,-0.51 c 0,-4.92 1.47,-12.55 8.38,-17.42 0.28,0 0.68,0 0.68,0.4 0,0.22 -0.09,0.29 -0.34,0.54 -4.64,4.18 -6.34,10.1 -6.34,16.45 0,9.4 3.59,14 6.45,16.58 0.14,0.14 0.23,0.25 0.23,0.42 0,0.42 -0.4,0.42 -0.68,0.42 z"
             id="path3538" /><path
             style="fill:#000000;stroke-width:0"
             inkscape:connector-curvature="0"
             d="m 910.93,442.93 -0.08,-0.02 -0.08,-0.02 -0.08,-0.03 -0.08,-0.03 -0.08,-0.03 -0.07,-0.03 -0.07,-0.04 -0.07,-0.04 -0.06,-0.04 -0.07,-0.04 -0.06,-0.05 -0.06,-0.05 -0.06,-0.05 -0.05,-0.05 -0.05,-0.05 -0.05,-0.06 -0.05,-0.05 -0.04,-0.06 -0.04,-0.06 -0.04,-0.06 -0.03,-0.06 -0.04,-0.06 -0.03,-0.06 -0.02,-0.07 -0.03,-0.06 -0.02,-0.06 -0.01,-0.07 -0.02,-0.06 -0.01,-0.07 -0.01,-0.06 0,-0.07 0,-0.06 c 0,-0.81 0.7,-1.13 1.15,-1.13 0.35,0 1.67,0.22 1.67,1.99 0,2.26 -2.5,3.03 -4.62,3.03 -5.44,0 -6.42,-4 -6.42,-5.08 0,-1.3 0.73,-2.12 1.22,-2.55 0.9,-0.7 1.53,-0.82 3.93,-1.25 0.74,-0.14 2.97,-0.56 2.97,-2.29 0,-0.6 -0.39,-1.92 -1.84,-2.8 -1.36,-0.77 -3.08,-0.77 -3.49,-0.77 -1.4,0 -3.39,0.32 -4.19,1.47 1.16,0.14 1.93,1 1.93,1.99 0,0.87 -0.63,1.28 -1.36,1.28 -1.02,0 -2.03,-0.8 -2.03,-2.33 0,-2.09 2.23,-3.37 5.61,-3.37 6.42,0 7.6,4.39 7.6,5.75 0,3.2 -3.53,3.82 -4.81,4.07 -0.31,0.07 -1.19,0.21 -1.39,0.27 -1.3,0.25 -1.92,0.98 -1.92,1.75 0,0.8 0.62,1.73 1.39,2.23 0.94,0.6 2.16,0.66 2.75,0.66 0.73,0 2.55,-0.11 3.31,-1.3 z"
             id="path3540" /><path
             style="fill:#000000;stroke-width:0"
             inkscape:connector-curvature="0"
             d="m 917.9,455.98 -0.03,0 -0.02,0 -0.03,0 -0.02,0 -0.03,0 -0.03,0 -0.02,0 -0.03,-0.01 -0.03,0 -0.03,0 -0.03,-0.01 -0.02,0 -0.03,-0.01 -0.03,-0.01 -0.03,0 -0.02,-0.01 -0.03,-0.01 -0.02,-0.01 -0.02,-0.02 -0.03,-0.01 -0.02,-0.02 -0.02,-0.02 -0.02,-0.02 0,-0.01 -0.01,-0.01 -0.01,-0.01 -0.01,-0.01 -0.01,-0.01 0,-0.02 -0.01,-0.01 0,-0.01 -0.01,-0.02 0,-0.01 -0.01,-0.02 0,-0.01 -0.01,-0.02 0,-0.02 0,-0.01 0,-0.02 0,-0.02 0,-0.02 c 0,-0.17 0.11,-0.28 0.31,-0.53 3,-2.75 6.34,-7.46 6.34,-16.44 0,-7.28 -2.26,-12.8 -6.03,-16.2 -0.58,-0.6 -0.62,-0.63 -0.62,-0.82 0,-0.17 0.11,-0.4 0.45,-0.4 0.42,0 3.73,2.29 6.03,6.65 1.53,2.89 2.55,6.66 2.55,10.74 0,4.9 -1.47,12.53 -8.36,17.42 z"
             id="path3542" /><path
             style="fill:#000000;stroke-width:0"
             inkscape:connector-curvature="0"
             d="m 937.12,454.62 0,0.05 0,0.05 0,0.05 0,0.06 0,0.05 0,0.06 -0.01,0.05 0,0.06 -0.01,0.06 0,0.05 -0.01,0.06 -0.01,0.06 -0.02,0.05 -0.01,0.06 -0.02,0.05 -0.01,0.05 -0.03,0.05 -0.02,0.05 -0.03,0.05 -0.03,0.05 -0.03,0.04 -0.03,0.04 -0.04,0.04 -0.02,0.01 -0.03,0.02 -0.02,0.02 -0.02,0.01 -0.03,0.02 -0.02,0.01 -0.03,0.01 -0.03,0.01 -0.02,0.01 -0.03,0.01 -0.04,0.01 -0.03,0.01 -0.03,0.01 -0.03,0 -0.04,0 -0.04,0.01 -0.03,0 -0.04,0 c -0.88,0 -0.88,-0.81 -0.88,-1.36 v -32.14 c 0,-0.52 0,-1.36 0.85,-1.36 0.87,0 0.87,0.81 0.87,1.36 z"
             id="path3544" /><path
             style="fill:#000000;stroke-width:0"
             inkscape:connector-curvature="0"
             d="m 948.88,454.62 0,0.05 0,0.05 0,0.05 0,0.06 0,0.05 -0.01,0.06 0,0.05 0,0.06 -0.01,0.06 -0.01,0.05 -0.01,0.06 -0.01,0.06 -0.01,0.05 -0.01,0.06 -0.02,0.05 -0.02,0.05 -0.02,0.05 -0.02,0.05 -0.03,0.05 -0.03,0.05 -0.03,0.04 -0.04,0.04 -0.03,0.04 -0.03,0.01 -0.02,0.02 -0.02,0.02 -0.02,0.01 -0.03,0.02 -0.02,0.01 -0.03,0.01 -0.03,0.01 -0.03,0.01 -0.03,0.01 -0.03,0.01 -0.03,0.01 -0.03,0.01 -0.04,0 -0.03,0 -0.04,0.01 -0.04,0 -0.04,0 c -0.87,0 -0.87,-0.81 -0.87,-1.36 v -32.14 c 0,-0.52 0,-1.36 0.84,-1.36 0.88,0 0.88,0.81 0.88,1.36 z"
             id="path3546" /><path
             style="fill:#000000;stroke-width:0"
             inkscape:connector-curvature="0"
             d="m 977.85,433.57 0.02,0.07 0.01,0.07 0.02,0.07 0.02,0.06 0.01,0.06 0.02,0.06 0.02,0.05 0.03,0.05 0.02,0.05 0.03,0.05 0.03,0.04 0.03,0.04 0.04,0.03 0.04,0.04 0.04,0.03 0.05,0.03 0.05,0.03 0.06,0.02 0.07,0.02 0.07,0.02 0.08,0.02 0.04,0.01 0.04,0.01 0.05,0.01 0.04,0 0.05,0.01 0.05,0.01 0.06,0 0.05,0.01 0.06,0 0.05,0.01 0.07,0 0.06,0 0.06,0.01 0.07,0 0.07,0 0.07,0 0.08,0.01 0.07,0 0.08,0 0.09,0 0.08,0 0.09,0 c 0.64,0 0.69,0 0.79,0.08 0.15,0.15 0.22,0.45 0.22,0.62 0,0.05 -0.01,0.43 -0.45,0.43 -0.52,0 -1.11,-0.08 -1.65,-0.08 -0.62,0 -1.22,-0.02 -1.83,-0.02 -0.63,0 -1.22,0.02 -1.85,0.02 -0.56,0 -1.19,0.08 -1.73,0.08 -0.17,0 -0.63,0 -0.63,-0.71 0,-0.42 0.3,-0.42 0.92,-0.42 0.25,0 1.07,0 1.6,-0.14 0,-0.31 0,-0.36 -0.08,-0.63 l -1.42,-5.7 h -9.48 l 1.35,5.47 c 0.21,0.8 0.25,1 2.16,1 0.64,0 0.69,0 0.8,0.08 0.14,0.15 0.22,0.45 0.22,0.62 0,0.05 -0.03,0.43 -0.46,0.43 -0.51,0 -1.11,-0.08 -1.67,-0.08 -0.59,0 -1.22,-0.02 -1.81,-0.02 -0.63,0 -1.22,0.02 -1.84,0.02 -0.58,0 -1.19,0.08 -1.75,0.08 -0.18,0 -0.62,0 -0.62,-0.71 0,-0.42 0.3,-0.42 0.93,-0.42 0.25,0 1.06,0 1.59,-0.14 0,-0.31 0,-0.36 -0.08,-0.63 l -3.26,-13.06 c -0.21,-0.75 -0.22,-0.94 -2.14,-0.94 -0.63,0 -1.02,0 -1.02,-0.7 0,-0.2 0.17,-0.42 0.44,-0.42 0.53,0 1.12,0.08 1.67,0.08 0.62,0 1.22,0.01 1.84,0.01 0.63,0 1.22,-0.01 1.85,-0.01 0.58,0 1.2,-0.08 1.75,-0.08 0.14,0 0.61,0 0.61,0.7 0,0.42 -0.35,0.42 -0.81,0.42 -0.05,0 -0.66,0 -1.08,0.05 -0.63,0.05 -0.64,0.08 -0.64,0.27 0,0.06 0,0.11 0.07,0.36 l 1.61,6.5 h 9.5 l -1.58,-6.24 c -0.2,-0.75 -0.25,-0.94 -2.13,-0.94 -0.63,0 -1.02,0 -1.02,-0.7 0,-0.2 0.17,-0.42 0.44,-0.42 0.53,0 1.12,0.08 1.67,0.08 0.62,0 1.22,0.01 1.84,0.01 0.63,0 1.22,-0.01 1.85,-0.01 0.57,0 1.2,-0.08 1.75,-0.08 0.14,0 0.62,0 0.62,0.7 0,0.42 -0.36,0.42 -0.83,0.42 -0.04,0 -0.64,0 -1.06,0.05 -0.63,0.05 -0.66,0.08 -0.66,0.27 0,0.06 0,0.11 0.08,0.36 z"
             id="path3548" /><path
             style="fill:#000000;stroke-width:0"
             inkscape:connector-curvature="0"
             d="m 998.7,420.48 -0.06,0.06 -0.06,0.06 -0.06,0.06 -0.06,0.06 -0.05,0.05 -0.06,0.06 -0.05,0.05 -0.05,0.05 -0.1,0.1 -0.09,0.1 -0.1,0.1 -0.09,0.09 -0.18,0.19 -0.09,0.09 -0.09,0.1 -0.09,0.1 -0.1,0.1 -0.05,0.05 -0.06,0.05 -0.05,0.05 -0.06,0.06 c -0.73,0.67 -3.13,2.55 -6.48,2.55 -3.4,0 -6.03,-2.58 -6.03,-5.66 h 0.84 c 0,2.34 2.16,4.08 4.74,4.08 0.86,0 2.2,-0.08 4.34,-1.86 1,-0.83 1.74,-1.72 2.77,-2.72 h 0 c -1.58,-2.14 -4.11,-4.03 -6.99,-4.03 -2.64,0 -4.86,1.98 -4.86,4.53 h -0.84 c 0,-3.06 2.59,-5.64 5.94,-5.64 1.86,0 4.86,0.69 7.64,4.17 0.67,-0.65 1,-1.03 1.59,-1.62 0.74,-0.68 3.14,-2.55 6.54,-2.55 3.4,0 6,2.58 6,5.66 h -0.9 c 0,-2.33 -2.1,-4.08 -4.7,-4.08 -0.9,0 -2.2,0.08 -4.3,1.86 -1,0.83 -1.8,1.72 -2.81,2.72 h 0 c 1.61,2.14 4.11,4.04 7.01,4.04 2.6,0 4.8,-2 4.8,-4.54 h 0.9 c 0,3.06 -2.6,5.64 -6,5.64 -1.8,0 -4.8,-0.68 -7.6,-4.18 z"
             id="path3550" /><polyline
             style="fill:#000000;fill-rule:nonzero;stroke-width:0"
             points="675,410 1020.8,410 1020.8,412.04 675,412.04 "
             id="polyline3552" /><path
             style="fill:#000000;stroke-width:0"
             inkscape:connector-curvature="0"
             d="m 747.16,405.78 0,0.05 0,0.05 0,0.05 0,0.06 0,0.05 0,0.06 0,0.05 -0.01,0.06 0,0.06 -0.01,0.06 -0.01,0.05 -0.01,0.06 -0.01,0.05 -0.02,0.06 -0.01,0.05 -0.02,0.05 -0.02,0.06 -0.03,0.04 -0.02,0.05 -0.03,0.05 -0.03,0.04 -0.04,0.04 -0.04,0.04 -0.02,0.01 -0.02,0.02 -0.02,0.02 -0.03,0.01 -0.02,0.02 -0.03,0.01 -0.03,0.01 -0.02,0.01 -0.03,0.01 -0.03,0.01 -0.03,0.01 -0.03,0.01 -0.04,0.01 -0.03,0 -0.04,0.01 -0.03,0 -0.04,0 -0.04,0 c -0.87,0 -0.87,-0.81 -0.87,-1.36 v -32.14 c 0,-0.51 0,-1.36 0.84,-1.36 0.87,0 0.87,0.81 0.87,1.36 z"
             id="path3554" /><path
             style="fill:#000000;stroke-width:0"
             inkscape:connector-curvature="0"
             d="m 759.04,405.78 0,0.05 0,0.05 0,0.05 0,0.06 0,0.05 0,0.06 -0.01,0.05 0,0.06 -0.01,0.06 0,0.06 -0.01,0.05 -0.01,0.06 -0.01,0.05 -0.02,0.06 -0.01,0.05 -0.02,0.05 -0.02,0.06 -0.03,0.04 -0.02,0.05 -0.03,0.05 -0.04,0.04 -0.03,0.04 -0.04,0.04 -0.02,0.01 -0.02,0.02 -0.03,0.02 -0.02,0.01 -0.02,0.02 -0.03,0.01 -0.03,0.01 -0.02,0.01 -0.03,0.01 -0.03,0.01 -0.03,0.01 -0.04,0.01 -0.03,0.01 -0.03,0 -0.04,0.01 -0.03,0 -0.04,0 -0.04,0 c -0.88,0 -0.88,-0.81 -0.88,-1.36 v -32.14 c 0,-0.51 0,-1.36 0.85,-1.36 0.87,0 0.87,0.81 0.87,1.36 z"
             id="path3556" /><path
             style="fill:#000000;stroke-width:0"
             inkscape:connector-curvature="0"
             d="m 793.41,405.05 0,0.01 0,0.02 0,0.02 0,0.02 0,0.01 -0.01,0.02 0,0.02 -0.01,0.02 0,0.02 -0.01,0.02 -0.01,0.02 -0.01,0.02 -0.01,0.01 -0.01,0.02 -0.01,0.02 -0.01,0.02 -0.02,0.01 -0.01,0.02 -0.02,0.02 -0.01,0.01 -0.02,0.02 -0.02,0.01 -0.02,0.01 -0.02,0.01 -0.03,0.01 -0.02,0.01 -0.02,0.01 -0.03,0.01 -0.01,0 -0.02,0 -0.01,0.01 -0.02,0 -0.01,0 -0.02,0 -0.01,0 -0.02,0 c -0.25,0 -0.31,-0.08 -0.62,-0.42 l -2.55,-2.69 c -0.31,0.42 -2.27,3.11 -6.55,3.11 -8.47,0 -16.76,-7.5 -16.76,-15.37 0,-5.4 4.11,-9.83 10.79,-9.83 3.08,0 6.32,0.81 8.13,2.76 0.34,-0.76 1.3,-2.03 1.7,-2.03 0.31,0 0.39,0.14 0.56,0.88 l 0.66,2.68 c 0.17,0.63 0.67,2.72 0.77,3.13 0.42,1.58 0.45,1.61 2.51,1.64 0.25,0 0.77,0 0.77,0.73 0,0.35 -0.25,0.52 -0.52,0.52 -1.15,0 -2.62,-0.13 -3.84,-0.13 -0.86,0 -2.02,0 -2.89,0.04 -0.88,0.03 -1.88,0.09 -2.75,0.09 -0.25,0 -0.77,0 -0.77,-0.77 0,-0.48 0.38,-0.48 1.25,-0.48 0.67,0 1.36,0 2.03,-0.06 1.11,-0.11 1.14,-0.25 1.14,-0.67 0,-0.15 0,-0.21 -0.23,-1.11 -0.25,-0.97 -0.64,-2.55 -0.78,-2.89 -1,-2.13 -4.25,-3.07 -6.97,-3.07 -3.49,0 -8.05,1.67 -8.05,7.57 0,3.71 1.75,8.39 4.33,11 3.59,3.56 7.31,4.1 9.27,4.1 4.04,0 6.4,-2.92 6.4,-6.82 0,-0.97 -0.09,-1.22 -0.09,-1.43 0,-0.45 0.45,-0.45 0.62,-0.45 0.57,0 0.57,0.11 0.74,0.77 z"
             id="path3558" /><path
             style="fill:#000000;stroke-width:0"
             inkscape:connector-curvature="0"
             d="m 804.92,391.92 0,0.04 0,0.03 0,0.03 0,0.03 0,0.03 0,0.03 0,0.03 0,0.03 0,0.03 -0.01,0.02 0,0.03 0,0.02 0,0.02 -0.01,0.02 0,0.03 0,0.02 -0.01,0.01 0,0.02 -0.01,0.04 -0.01,0.03 -0.02,0.03 -0.01,0.03 -0.02,0.02 -0.02,0.02 -0.02,0.02 -0.02,0.01 -0.03,0.02 -0.03,0.01 -0.03,0.01 -0.04,0.01 -0.04,0.01 -0.04,0.01 -0.02,0 -0.02,0 -0.03,0 -0.02,0 -0.03,0.01 -0.02,0 -0.03,0 -0.03,0 -0.03,0 -0.03,0 -0.03,0 -0.03,0 -0.03,0 -0.04,0 -0.03,0 -0.04,0 -0.04,0 -0.03,0 c -1.77,-1.59 -4.54,-1.59 -5.04,-1.59 h -0.42 v -1.1 h 0.42 c 0.58,0 2.19,0.07 3.65,0.69 v -12.45 c 0,-0.77 0,-1.05 -2.65,-1.05 h -1.25 v -1.09 c 1.38,0.09 3.6,0.09 5.04,0.09 1.45,0 3.67,0 5.03,-0.09 v 1.09 h -1.24 c -2.64,0 -2.64,0.28 -2.64,1.05 z"
             id="path3560" /><path
             style="fill:#000000;stroke-width:0"
             inkscape:connector-curvature="0"
             d="m 826.93,407.14 -0.6,-0.44 -0.58,-0.47 -0.55,-0.47 -0.53,-0.49 -0.5,-0.5 -0.47,-0.51 -0.45,-0.53 -0.42,-0.53 -0.4,-0.54 -0.37,-0.55 -0.36,-0.56 -0.33,-0.56 -0.31,-0.57 -0.28,-0.57 -0.27,-0.58 -0.25,-0.58 -0.23,-0.58 -0.2,-0.58 -0.2,-0.59 -0.17,-0.58 -0.15,-0.58 -0.14,-0.58 -0.13,-0.57 -0.1,-0.57 -0.1,-0.57 -0.08,-0.56 -0.06,-0.55 -0.05,-0.54 -0.04,-0.54 -0.03,-0.53 -0.02,-0.51 0,-0.51 c 0,-4.92 1.47,-12.55 8.37,-17.42 0.29,0 0.69,0 0.69,0.4 0,0.22 -0.09,0.29 -0.34,0.54 -4.64,4.18 -6.35,10.11 -6.35,16.45 0,9.41 3.6,14 6.46,16.58 0.14,0.14 0.23,0.25 0.23,0.42 0,0.42 -0.4,0.42 -0.69,0.42 z"
             id="path3562" /><path
             style="fill:#000000;stroke-width:0"
             inkscape:connector-curvature="0"
             d="m 845.17,394.09 -0.08,-0.02 -0.08,-0.02 -0.08,-0.03 -0.08,-0.03 -0.08,-0.03 -0.07,-0.03 -0.07,-0.04 -0.07,-0.04 -0.07,-0.04 -0.06,-0.04 -0.06,-0.05 -0.06,-0.05 -0.06,-0.05 -0.05,-0.05 -0.05,-0.05 -0.05,-0.06 -0.05,-0.05 -0.04,-0.06 -0.04,-0.06 -0.04,-0.06 -0.04,-0.06 -0.03,-0.06 -0.03,-0.06 -0.02,-0.07 -0.03,-0.06 -0.02,-0.06 -0.02,-0.07 -0.01,-0.06 -0.01,-0.07 -0.01,-0.06 -0.01,-0.07 0,-0.06 c 0,-0.81 0.71,-1.13 1.16,-1.13 0.34,0 1.67,0.22 1.67,1.99 0,2.26 -2.5,3.03 -4.62,3.03 -5.44,0 -6.43,-4 -6.43,-5.08 0,-1.3 0.74,-2.12 1.22,-2.55 0.91,-0.7 1.53,-0.82 3.94,-1.25 0.74,-0.14 2.97,-0.56 2.97,-2.29 0,-0.6 -0.39,-1.92 -1.84,-2.8 -1.36,-0.76 -3.08,-0.76 -3.49,-0.76 -1.4,0 -3.39,0.31 -4.19,1.46 1.16,0.14 1.93,1 1.93,1.99 0,0.87 -0.63,1.28 -1.36,1.28 -1.02,0 -2.03,-0.8 -2.03,-2.33 0,-2.09 2.23,-3.37 5.6,-3.37 6.43,0 7.61,4.39 7.61,5.75 0,3.2 -3.53,3.82 -4.81,4.07 -0.31,0.07 -1.19,0.21 -1.39,0.27 -1.3,0.25 -1.92,0.98 -1.92,1.75 0,0.8 0.62,1.73 1.39,2.23 0.94,0.6 2.16,0.66 2.75,0.66 0.73,0 2.55,-0.11 3.31,-1.3 z"
             id="path3564" /><path
             style="fill:#000000;stroke-width:0"
             inkscape:connector-curvature="0"
             d="m 852.14,407.14 -0.03,0 -0.02,0 -0.03,0 -0.02,0 -0.03,0 -0.03,0 -0.03,0 -0.02,-0.01 -0.03,0 -0.03,0 -0.03,-0.01 -0.03,0 -0.02,-0.01 -0.03,0 -0.03,-0.01 -0.02,-0.01 -0.03,-0.01 -0.02,-0.01 -0.03,-0.02 -0.02,-0.01 -0.02,-0.02 -0.02,-0.02 -0.02,-0.02 -0.01,-0.01 -0.01,-0.01 0,-0.01 -0.01,-0.01 -0.01,-0.01 0,-0.02 -0.01,-0.01 -0.01,-0.01 0,-0.02 -0.01,-0.01 0,-0.02 0,-0.01 -0.01,-0.02 0,-0.02 0,-0.01 0,-0.02 0,-0.02 0,-0.02 c 0,-0.17 0.1,-0.28 0.31,-0.53 3,-2.75 6.34,-7.46 6.34,-16.44 0,-7.28 -2.27,-12.8 -6.03,-16.2 -0.58,-0.6 -0.62,-0.63 -0.62,-0.82 0,-0.17 0.1,-0.4 0.45,-0.4 0.42,0 3.73,2.3 6.03,6.65 1.53,2.9 2.55,6.66 2.55,10.74 0,4.91 -1.47,12.53 -8.36,17.42 z"
             id="path3566" /><path
             style="fill:#000000;stroke-width:0"
             inkscape:connector-curvature="0"
             d="m 871.36,405.78 0,0.05 0,0.05 0,0.05 0,0.06 0,0.05 -0.01,0.06 0,0.05 0,0.06 -0.01,0.06 -0.01,0.06 -0.01,0.05 -0.01,0.06 -0.01,0.05 -0.01,0.06 -0.02,0.05 -0.02,0.05 -0.02,0.06 -0.02,0.04 -0.03,0.05 -0.03,0.05 -0.03,0.04 -0.03,0.04 -0.04,0.04 -0.02,0.01 -0.03,0.02 -0.02,0.02 -0.02,0.01 -0.03,0.02 -0.02,0.01 -0.03,0.01 -0.03,0.01 -0.03,0.01 -0.03,0.01 -0.03,0.01 -0.03,0.01 -0.03,0.01 -0.04,0 -0.03,0.01 -0.04,0 -0.04,0 -0.03,0 c -0.88,0 -0.88,-0.81 -0.88,-1.36 v -32.14 c 0,-0.51 0,-1.36 0.84,-1.36 0.88,0 0.88,0.81 0.88,1.36 z"
             id="path3568" /><path
             style="fill:#000000;stroke-width:0"
             inkscape:connector-curvature="0"
             d="m 883.12,405.78 0,0.05 0,0.05 0,0.05 0,0.06 0,0.05 0,0.06 -0.01,0.05 0,0.06 -0.01,0.06 0,0.06 -0.01,0.05 -0.01,0.06 -0.02,0.05 -0.01,0.06 -0.02,0.05 -0.01,0.05 -0.03,0.06 -0.02,0.04 -0.03,0.05 -0.03,0.05 -0.03,0.04 -0.03,0.04 -0.04,0.04 -0.02,0.01 -0.03,0.02 -0.02,0.02 -0.02,0.01 -0.03,0.02 -0.02,0.01 -0.03,0.01 -0.03,0.01 -0.02,0.01 -0.03,0.01 -0.04,0.01 -0.03,0.01 -0.03,0.01 -0.03,0 -0.04,0.01 -0.04,0 -0.03,0 -0.04,0 c -0.88,0 -0.88,-0.81 -0.88,-1.36 v -32.14 c 0,-0.51 0,-1.36 0.85,-1.36 0.87,0 0.87,0.81 0.87,1.36 z"
             id="path3570" /><path
             style="fill:#000000;stroke-width:0"
             inkscape:connector-curvature="0"
             d="m 912.09,384.73 0.02,0.07 0.01,0.07 0.02,0.07 0.02,0.06 0.02,0.06 0.01,0.06 0.03,0.05 0.02,0.05 0.02,0.05 0.03,0.05 0.03,0.04 0.03,0.04 0.04,0.03 0.04,0.04 0.04,0.03 0.05,0.03 0.06,0.03 0.06,0.02 0.06,0.02 0.07,0.02 0.08,0.02 0.04,0.01 0.04,0.01 0.05,0.01 0.05,0 0.04,0.01 0.05,0.01 0.06,0 0.05,0.01 0.06,0 0.06,0.01 0.06,0 0.06,0 0.07,0.01 0.06,0 0.07,0 0.07,0 0.08,0.01 0.08,0 0.08,0 0.08,0 0.08,0 0.09,0 c 0.64,0 0.69,0 0.8,0.08 0.14,0.15 0.22,0.45 0.22,0.62 0,0.05 -0.02,0.43 -0.46,0.43 -0.51,0 -1.11,-0.08 -1.65,-0.08 -0.61,0 -1.22,-0.02 -1.83,-0.02 -0.63,0 -1.22,0.02 -1.84,0.02 -0.57,0 -1.19,0.08 -1.74,0.08 -0.17,0 -0.63,0 -0.63,-0.71 0,-0.42 0.3,-0.42 0.93,-0.42 0.25,0 1.06,0 1.59,-0.14 0,-0.31 0,-0.36 -0.08,-0.63 l -1.42,-5.7 h -9.48 l 1.36,5.47 c 0.2,0.8 0.25,1 2.15,1 0.64,0 0.69,0 0.8,0.08 0.14,0.15 0.22,0.45 0.22,0.62 0,0.05 -0.03,0.43 -0.45,0.43 -0.52,0 -1.12,-0.08 -1.68,-0.08 -0.59,0 -1.22,-0.02 -1.81,-0.02 -0.63,0 -1.22,0.02 -1.84,0.02 -0.58,0 -1.19,0.08 -1.75,0.08 -0.17,0 -0.61,0 -0.61,-0.71 0,-0.42 0.29,-0.42 0.92,-0.42 0.25,0 1.06,0 1.59,-0.14 0,-0.31 0,-0.36 -0.07,-0.63 L 894.2,371.9 c -0.2,-0.75 -0.22,-0.94 -2.14,-0.94 -0.63,0 -1.02,0 -1.02,-0.7 0,-0.2 0.18,-0.42 0.44,-0.42 0.53,0 1.12,0.08 1.67,0.08 0.63,0 1.22,0.01 1.85,0.01 0.62,0 1.22,-0.01 1.84,-0.01 0.58,0 1.2,-0.08 1.75,-0.08 0.14,0 0.61,0 0.61,0.7 0,0.42 -0.35,0.42 -0.81,0.42 -0.05,0 -0.66,0 -1.08,0.05 -0.63,0.05 -0.64,0.08 -0.64,0.27 0,0.06 0,0.11 0.08,0.36 l 1.6,6.5 h 9.5 l -1.57,-6.24 c -0.21,-0.75 -0.25,-0.94 -2.14,-0.94 -0.63,0 -1.02,0 -1.02,-0.7 0,-0.2 0.17,-0.42 0.44,-0.42 0.53,0 1.12,0.08 1.67,0.08 0.62,0 1.22,0.01 1.84,0.01 0.63,0 1.22,-0.01 1.85,-0.01 0.58,0 1.2,-0.08 1.75,-0.08 0.14,0 0.62,0 0.62,0.7 0,0.42 -0.36,0.42 -0.82,0.42 -0.05,0 -0.65,0 -1.07,0.05 -0.62,0.05 -0.65,0.08 -0.65,0.27 0,0.06 0,0.11 0.07,0.36 z"
             id="path3572" /><path
             style="fill:#000000;stroke-width:0"
             inkscape:connector-curvature="0"
             d="m 932.94,371.64 -0.06,0.07 -0.06,0.05 -0.06,0.06 -0.06,0.06 -0.05,0.05 -0.06,0.06 -0.05,0.05 -0.05,0.05 -0.1,0.1 -0.1,0.1 -0.09,0.1 -0.09,0.09 -0.18,0.19 -0.09,0.09 -0.09,0.1 -0.1,0.1 -0.09,0.1 -0.06,0.05 -0.05,0.05 -0.05,0.05 -0.06,0.06 c -0.73,0.67 -3.14,2.55 -6.48,2.55 -3.41,0 -6.03,-2.58 -6.03,-5.66 h 0.84 c 0,2.34 2.16,4.08 4.74,4.08 0.86,0 2.2,-0.08 4.34,-1.86 1,-0.83 1.73,-1.72 2.77,-2.72 h 0 c -1.58,-2.14 -4.11,-4.03 -6.99,-4.03 -2.64,0 -4.86,1.98 -4.86,4.53 h -0.84 c 0,-3.06 2.59,-5.64 5.94,-5.64 1.86,0 4.86,0.69 7.64,4.17 0.67,-0.65 1,-1.03 1.59,-1.62 0.72,-0.68 3.14,-2.55 6.48,-2.55 3.41,0 6.04,2.58 6.04,5.66 h -0.86 c 0,-2.33 -2.14,-4.08 -4.74,-4.08 -0.84,0 -2.19,0.08 -4.33,1.86 -1,0.83 -1.75,1.72 -2.76,2.72 h 0 c 1.56,2.14 4.11,4.04 6.97,4.04 2.64,0 4.86,-2 4.86,-4.54 h 0.86 c 0,3.06 -2.6,5.64 -5.94,5.64 -1.86,0 -4.86,-0.68 -7.64,-4.18 z"
             id="path3574" /></g>      </g>
      <g
         id="g3844"
         transform="translate(149.74725,237.14285)">
        <g
           word-spacing="normal"
           letter-spacing="normal"
           font-size-adjust="none"
           font-stretch="normal"
           font-weight="normal"
           font-variant="normal"
           font-style="normal"
           stroke-miterlimit="10.433"
           xml:space="preserve"
           transform="matrix(1.0629921,0,0,-1.0629921,-186.02362,789.27165)"
           id="g3846"
           style="font-style:normal;font-variant:normal;font-weight:normal;font-stretch:normal;letter-spacing:normal;word-spacing:normal;text-anchor:start;fill:none;stroke:#000000;stroke-linecap:butt;stroke-linejoin:miter;stroke-miterlimit:10.43299961;stroke-opacity:1;stroke-dasharray:none;stroke-dashoffset:0"><path
             id="path3848"
             d="m 493.54,436.39 0.04,0.16 0.04,0.16 0.04,0.15 0.04,0.14 0.04,0.14 0.04,0.13 0.04,0.12 0.05,0.11 0.05,0.11 0.05,0.11 0.06,0.09 0.07,0.09 0.07,0.09 0.08,0.08 0.09,0.07 0.09,0.07 0.11,0.06 0.11,0.06 0.13,0.05 0.14,0.05 0.15,0.04 0.16,0.04 0.09,0.02 0.09,0.02 0.09,0.01 0.1,0.02 0.1,0.01 0.1,0.01 0.11,0.02 0.11,0.01 0.12,0.01 0.12,0 0.13,0.01 0.13,0.01 0.13,0.01 0.14,0 0.14,0 0.15,0.01 0.15,0 0.16,0 0.16,0 0.17,0 c 1.3,0 1.69,0 1.69,1 0,0.55 -0.55,0.55 -0.7,0.55 -1.39,0 -4.97,-0.16 -6.38,-0.16 -1.44,0 -4.98,0.16 -6.42,0.16 -0.39,0 -0.95,0 -0.95,-1 0,-0.55 0.45,-0.55 1.4,-0.55 0.1,0 1.05,0 1.89,-0.09 0.89,-0.11 1.35,-0.16 1.35,-0.8 0,-0.2 -0.05,-0.31 -0.21,-0.95 l -2.98,-12.16 h -15.2 l 2.95,11.71 c 0.44,1.79 0.59,2.29 4.17,2.29 1.3,0 1.71,0 1.71,1 0,0.55 -0.55,0.55 -0.71,0.55 -1.39,0 -4.98,-0.16 -6.37,-0.16 -1.44,0 -4.99,0.16 -6.42,0.16 -0.41,0 -0.96,0 -0.96,-1 0,-0.55 0.46,-0.55 1.39,-0.55 0.11,0 1.05,0 1.91,-0.09 0.89,-0.11 1.34,-0.16 1.34,-0.8 0,-0.2 -0.06,-0.36 -0.2,-0.95 l -6.67,-26.75 c -0.5,-1.95 -0.61,-2.34 -4.55,-2.34 -0.89,0 -1.34,0 -1.34,-1 0,-0.55 0.61,-0.55 0.7,-0.55 1.39,0 4.94,0.16 6.33,0.16 1.05,0 2.14,-0.07 3.19,-0.07 1.09,0 2.18,-0.09 3.23,-0.09 0.41,0 1,0 1,1 0,0.55 -0.45,0.55 -1.39,0.55 -1.84,0 -3.23,0 -3.23,0.89 0,0.29 0.09,0.54 0.14,0.84 l 3.39,13.66 H 486 c -2.09,-8.27 -3.23,-13 -3.43,-13.75 -0.49,-1.6 -1.44,-1.64 -4.53,-1.64 -0.75,0 -1.19,0 -1.19,-1 0,-0.55 0.59,-0.55 0.69,-0.55 1.4,0 4.93,0.16 6.32,0.16 1.05,0 2.14,-0.07 3.19,-0.07 1.11,0 2.2,-0.09 3.25,-0.09 0.39,0 0.99,0 0.99,1 0,0.55 -0.44,0.55 -1.4,0.55 -1.84,0 -3.23,0 -3.23,0.89 0,0.29 0.09,0.54 0.14,0.84 z"
             inkscape:connector-curvature="0"
             style="fill:#000000;stroke-width:0" /><path
             id="path3850"
             d="m 517.06,408.31 -0.17,0.2 -0.16,0.19 -0.15,0.18 -0.15,0.17 -0.15,0.16 -0.13,0.16 -0.13,0.15 -0.13,0.14 -0.12,0.14 -0.12,0.13 -0.12,0.13 -0.11,0.12 -0.11,0.11 -0.1,0.11 -0.11,0.11 -0.1,0.1 -0.2,0.19 -0.19,0.19 -0.2,0.17 -0.2,0.17 -0.2,0.16 -0.22,0.17 -0.11,0.08 -0.11,0.08 -0.12,0.09 -0.12,0.09 c -2.13,1.54 -4.35,2.12 -6.27,2.12 -4.33,0 -7.45,-3.69 -7.45,-7.87 h 0.97 c 0,3.36 2.72,5.96 5.92,5.96 3.25,0 5.47,-2.65 8.81,-6.68 h 0 c -1.39,-2.27 -4.42,-5.8 -8.67,-5.8 -3.59,0 -6.06,3.17 -6.06,6.52 h -0.97 c 0,-4.07 2.98,-7.83 7.34,-7.83 4.85,0 8.24,3.97 9.49,5.81 1.84,-2.16 2.4,-2.75 3.72,-3.69 2.12,-1.53 4.36,-2.12 6.28,-2.12 4.31,0 7.45,3.69 7.45,7.87 h -0.97 c 0,-3.34 -2.72,-5.97 -5.92,-5.97 -3.25,0 -5.48,2.66 -8.83,6.71 h 0 c 1.41,2.25 4.44,5.78 8.69,5.78 3.58,0 6.06,-3.17 6.06,-6.52 h 0.97 c 0,4.08 -3,7.83 -7.34,7.83 -4.85,0 -8.24,-3.97 -9.49,-5.81 z"
             inkscape:connector-curvature="0"
             style="fill:#000000;stroke-width:0" /><path
             id="path3852"
             d="m 544,399.32 0,-0.36 -0.02,-0.37 -0.03,-0.38 -0.04,-0.38 -0.03,-0.19 -0.04,-0.2 -0.03,-0.2 -0.05,-0.19 -0.05,-0.2 -0.05,-0.2 -0.07,-0.2 -0.06,-0.2 -0.08,-0.2 -0.08,-0.21 -0.09,-0.2 -0.1,-0.21 -0.11,-0.2 -0.11,-0.21 -0.13,-0.2 -0.13,-0.21 -0.14,-0.21 -0.15,-0.2 -0.16,-0.21 -0.17,-0.21 -0.19,-0.21 -0.19,-0.2 -0.2,-0.21 -0.22,-0.21 c -0.14,-0.14 -0.25,-0.25 -0.25,-0.42 0,-0.25 0.28,-0.49 0.49,-0.49 0.48,0 3.45,2.78 3.45,6.92 0,2.18 -0.84,3.8 -2.44,3.8 -1.15,0 -1.98,-0.9 -1.98,-1.98 0,-1.11 0.79,-2.02 2.01,-2.02 0.85,0 1.39,0.56 1.44,0.56 z"
             inkscape:connector-curvature="0"
             style="fill:#000000;stroke-width:0" /><path
             id="path3854"
             d="m 563.22,412.07 -0.07,0.11 -0.07,0.11 -0.08,0.1 -0.07,0.1 -0.08,0.1 -0.09,0.1 -0.08,0.09 -0.09,0.1 -0.1,0.09 -0.09,0.08 -0.1,0.09 -0.1,0.08 -0.1,0.08 -0.1,0.08 -0.11,0.07 -0.11,0.08 -0.12,0.06 -0.11,0.07 -0.12,0.06 -0.12,0.05 -0.13,0.06 -0.12,0.05 -0.13,0.04 -0.14,0.04 -0.13,0.04 -0.14,0.03 -0.14,0.03 -0.15,0.02 -0.14,0.02 -0.15,0.01 -0.16,0.01 -0.15,0 v -0.97 c 2.44,0 3.11,-2.64 3.11,-3.03 0,-0.14 -0.08,-0.39 -0.11,-0.48 l -1.64,-6.52 c -0.24,-0.98 -1,-1.67 -1.77,-2.34 -0.31,-0.27 -1.72,-1.39 -3.22,-1.39 -1.28,0 -2.53,0.9 -2.53,3.37 0,1.86 1,5.69 1.81,7.08 1.6,2.8 3.38,3.31 4.35,3.31 v 0.97 c -4.45,0 -8.98,-4.91 -8.98,-9.92 0,-3.38 2.26,-5.78 5.26,-5.78 1.87,0 3.55,1.08 4.94,2.44 0.67,-2.1 2.68,-2.44 3.59,-2.44 1.25,0 2.13,0.76 2.75,1.84 0.77,1.36 1.22,3.35 1.22,3.49 0,0.45 -0.45,0.45 -0.55,0.45 -0.5,0 -0.53,-0.14 -0.76,-1.08 -0.42,-1.67 -1.1,-3.73 -2.55,-3.73 -0.9,0 -1.15,0.76 -1.15,1.7 0,0.59 0.28,1.86 0.53,2.77 0.23,0.93 0.59,2.35 0.76,3.12 l 0.69,2.66 c 0.22,0.9 0.62,2.54 0.62,2.72 0,0.76 -0.62,1.1 -1.17,1.1 -0.59,0 -1.4,-0.42 -1.61,-1.39 z"
             inkscape:connector-curvature="0"
             style="fill:#000000;stroke-width:0" /><path
             id="path3856"
             d="m 579.32,421.9 0,0.01 0,0 0,0 0.01,0.01 0,0 0,0.01 0,0.01 0.01,0 0,0.01 0,0.01 0,0.01 0.01,0.02 0.01,0.02 0,0.02 0.01,0.02 0,0.02 0.01,0.02 0,0.03 0.01,0.02 0.01,0.05 0.01,0.04 0.01,0.03 0,0.02 0.01,0.02 0,0.02 0.01,0.02 0,0.02 0.01,0.02 0,0.01 0,0.01 0,0.01 0.01,0 0,0.01 0,0 0,0.01 0,0 0,0.01 0,0 0,0 0,0.01 0,0 c 0,0.19 -0.14,0.5 -0.56,0.5 -0.7,0 -3.6,-0.28 -4.45,-0.36 -0.29,-0.03 -0.79,-0.06 -0.79,-0.8 0,-0.48 0.5,-0.48 0.91,-0.48 1.67,0 1.67,-0.25 1.67,-0.53 0,-0.24 -0.34,-1.63 -0.54,-2.44 l -0.8,-3.2 c -0.33,-1.19 -2.24,-8.82 -2.31,-9.27 -0.18,-0.84 -0.18,-1.3 -0.18,-1.7 0,-3.53 2.24,-5.75 5.13,-5.75 l 0.03,0.97 c -1.7,0 -2.67,1.5 -2.67,3.56 0,1.28 0.31,2.47 1.28,6.41 0.2,0.65 0.2,0.73 0.87,1.5 1.33,1.53 2.9,2.29 4.15,2.29 1.35,0 2.54,-1.01 2.54,-3.37 0,-1.44 -0.76,-4.99 -1.81,-7.02 -0.84,-1.7 -2.58,-3.37 -4.36,-3.37 h 0 l -0.03,-0.97 c 4.36,0 8.98,4.73 8.98,9.89 0,4.08 -2.81,5.81 -5.22,5.81 -1.81,0 -3.34,-1 -4.39,-1.91 z"
             inkscape:connector-curvature="0"
             style="fill:#000000;stroke-width:0" /><path
             id="path3858"
             d="m 602.65,411.86 -0.08,-0.03 -0.08,-0.02 -0.08,-0.03 -0.08,-0.02 -0.08,-0.04 -0.07,-0.03 -0.07,-0.04 -0.07,-0.04 -0.07,-0.04 -0.06,-0.04 -0.06,-0.05 -0.06,-0.05 -0.06,-0.05 -0.05,-0.05 -0.05,-0.05 -0.05,-0.06 -0.05,-0.05 -0.04,-0.06 -0.04,-0.06 -0.04,-0.06 -0.04,-0.06 -0.03,-0.06 -0.03,-0.06 -0.02,-0.06 -0.03,-0.07 -0.02,-0.06 -0.02,-0.07 -0.01,-0.06 -0.01,-0.07 -0.01,-0.06 0,-0.07 -0.01,-0.06 c 0,-0.81 0.71,-1.12 1.16,-1.12 0.34,0 1.67,0.21 1.67,1.98 0,2.27 -2.5,3.03 -4.62,3.03 -5.44,0 -6.42,-4 -6.42,-5.08 0,-1.29 0.73,-2.12 1.21,-2.54 0.91,-0.71 1.54,-0.83 3.94,-1.25 0.73,-0.14 2.97,-0.57 2.97,-2.3 0,-0.59 -0.39,-1.92 -1.84,-2.8 -1.36,-0.76 -3.08,-0.76 -3.49,-0.76 -1.41,0 -3.39,0.31 -4.19,1.47 1.16,0.14 1.93,1 1.93,1.98 0,0.87 -0.63,1.28 -1.36,1.28 -1.02,0 -2.04,-0.8 -2.04,-2.33 0,-2.09 2.24,-3.37 5.62,-3.37 6.42,0 7.6,4.39 7.6,5.75 0,3.2 -3.53,3.83 -4.81,4.08 -0.31,0.06 -1.19,0.2 -1.39,0.26 -1.3,0.25 -1.92,0.99 -1.92,1.75 0,0.8 0.62,1.74 1.39,2.24 0.94,0.59 2.16,0.65 2.75,0.65 0.73,0 2.55,-0.11 3.31,-1.29 z"
             inkscape:connector-curvature="0"
             style="fill:#000000;stroke-width:0" /><path
             id="path3860"
             d="m 657.03,422.5 0.15,0 0.14,0 0.14,0 0.08,0.01 0.07,0 0.07,0.01 0.07,0.01 0.07,0.01 0.07,0.01 0.07,0.01 0.07,0.02 0.06,0.02 0.06,0.02 0.07,0.02 0.05,0.03 0.06,0.03 0.05,0.04 0.05,0.03 0.05,0.05 0.04,0.04 0.04,0.05 0.02,0.03 0.02,0.03 0.01,0.02 0.02,0.03 0.01,0.03 0.02,0.04 0.01,0.03 0.01,0.04 0.01,0.03 0.01,0.04 0.01,0.04 0,0.04 0.01,0.04 0,0.04 0,0.04 0,0.05 c 0,1 -0.95,1 -1.64,1 h -29.84 c -0.71,0 -1.64,0 -1.64,-1 0,-0.98 0.93,-0.98 1.68,-0.98 z"
             inkscape:connector-curvature="0"
             style="fill:#000000;stroke-width:0" /><path
             id="path3862"
             d="m 657.08,412.82 0.07,0 0.06,0 0.14,0.01 0.14,0 0.07,0 0.07,0.01 0.07,0.01 0.07,0 0.07,0.01 0.06,0.02 0.07,0.01 0.07,0.02 0.06,0.02 0.06,0.02 0.06,0.02 0.06,0.03 0.05,0.03 0.06,0.04 0.04,0.04 0.05,0.04 0.04,0.05 0.02,0.02 0.02,0.03 0.02,0.02 0.02,0.03 0.02,0.03 0.01,0.03 0.01,0.03 0.02,0.03 0.01,0.04 0.01,0.03 0.01,0.04 0.01,0.04 0.01,0.04 0,0.04 0.01,0.04 0,0.04 0,0.05 0,0.04 c 0,1 -0.95,1 -1.69,1 h -29.75 c -0.75,0 -1.68,0 -1.68,-1 0,-1 0.93,-1 1.64,-1 z"
             inkscape:connector-curvature="0"
             style="fill:#000000;stroke-width:0" /><path
             id="path3864"
             d="m 683.28,441.78 0,0.16 0,0.17 -0.01,0.16 0,0.08 0,0.08 -0.01,0.08 -0.01,0.08 -0.01,0.07 -0.01,0.07 -0.02,0.07 -0.01,0.07 -0.02,0.07 -0.02,0.06 -0.03,0.06 -0.03,0.06 -0.03,0.06 -0.03,0.05 -0.04,0.05 -0.04,0.05 -0.05,0.04 -0.05,0.04 -0.03,0.01 -0.03,0.02 -0.03,0.02 -0.03,0.01 -0.03,0.01 -0.03,0.02 -0.03,0.01 -0.04,0.01 -0.04,0.01 -0.03,0.01 -0.04,0 -0.04,0.01 -0.04,0 -0.05,0.01 -0.04,0 -0.05,0 c -1,0 -1,-0.89 -1,-1.78 v -46.24 c 0,-0.9 0,-1.79 1,-1.79 1,0 1,0.89 1,1.79 z"
             inkscape:connector-curvature="0"
             style="fill:#000000;stroke-width:0" /><path
             id="path3866"
             d="m 697.08,441.78 0,0.16 0,0.17 -0.01,0.16 0,0.08 -0.01,0.08 0,0.08 -0.01,0.08 -0.01,0.07 -0.01,0.07 -0.02,0.07 -0.02,0.07 -0.01,0.07 -0.03,0.06 -0.02,0.06 -0.03,0.06 -0.03,0.06 -0.04,0.05 -0.03,0.05 -0.05,0.05 -0.04,0.04 -0.05,0.04 -0.03,0.01 -0.03,0.02 -0.03,0.02 -0.03,0.01 -0.03,0.01 -0.03,0.02 -0.04,0.01 -0.03,0.01 -0.04,0.01 -0.04,0.01 -0.04,0 -0.04,0.01 -0.04,0 -0.04,0.01 -0.05,0 -0.04,0 c -1,0 -1,-0.89 -1,-1.78 v -46.24 c 0,-0.9 0,-1.79 1,-1.79 1,0 1,0.89 1,1.79 z"
             inkscape:connector-curvature="0"
             style="fill:#000000;stroke-width:0" /><path
             id="path3868"
             d="m 740.81,440.82 0,0.02 0,0.02 0,0.01 0,0.02 0,0.02 -0.01,0.02 0,0.02 -0.01,0.02 -0.01,0.02 0,0.02 -0.01,0.02 -0.01,0.02 -0.01,0.02 -0.01,0.02 -0.02,0.02 -0.01,0.02 -0.02,0.02 -0.01,0.02 -0.02,0.02 -0.02,0.02 -0.02,0.01 -0.03,0.02 -0.02,0.01 -0.03,0.02 -0.03,0.01 -0.01,0.01 -0.02,0 -0.01,0.01 -0.02,0 -0.01,0.01 -0.02,0 -0.02,0 -0.02,0.01 -0.01,0 -0.02,0 -0.02,0 -0.02,0 -0.02,0 -0.02,0 c -0.14,0 -0.21,-0.04 -0.75,-0.59 l -3.49,-3.84 c -0.44,0.7 -2.73,4.43 -8.26,4.43 -11.11,0 -22.33,-11.01 -22.33,-22.56 0,-7.92 5.53,-13.65 13.61,-13.65 2.18,0 4.43,0.45 6.22,1.18 2.5,1 3.43,2.05 4.34,3.05 0.45,-1.25 1.73,-3.09 2.23,-3.09 0.25,0 0.36,0.15 0.36,0.2 0.1,0.09 0.6,1.98 0.85,3.03 l 0.93,3.84 c 0.21,0.85 0.46,1.69 0.66,2.55 0.55,2.24 0.59,2.33 3.44,2.39 0.25,0 0.8,0.05 0.8,0.99 0,0.36 -0.25,0.54 -0.65,0.54 -1.15,0 -4.09,-0.14 -5.23,-0.14 -1.55,0 -5.44,0.14 -6.98,0.14 -0.44,0 -1.05,0 -1.05,-0.98 0,-0.55 0.41,-0.55 1.5,-0.55 0.05,0 1.5,0 2.64,-0.11 1.3,-0.14 1.55,-0.29 1.55,-0.94 0,-0.45 -0.55,-2.7 -1.05,-4.53 -1.39,-5.48 -7.88,-6.03 -9.63,-6.03 -4.78,0 -10,2.83 -10,10.46 0,1.54 0.49,9.76 5.72,16.25 2.69,3.39 7.53,6.42 12.46,6.42 5.09,0 8.03,-3.83 8.03,-9.61 0,-2 -0.16,-2.05 -0.16,-2.55 0,-0.5 0.55,-0.5 0.75,-0.5 0.64,0 0.64,0.11 0.89,1 z"
             inkscape:connector-curvature="0"
             style="fill:#000000;stroke-width:0" /><path
             id="path3870"
             d="m 753.75,420.92 0,0.04 0,0.04 0,0.05 0,0.04 0,0.03 0,0.04 0,0.04 0,0.03 -0.01,0.04 0,0.03 0,0.03 0,0.03 0,0.03 -0.01,0.03 0,0.03 -0.01,0.02 0,0.03 0,0.02 -0.01,0.03 0,0.02 -0.02,0.04 -0.01,0.04 -0.02,0.03 -0.02,0.03 -0.02,0.03 -0.02,0.03 -0.03,0.02 -0.03,0.02 -0.04,0.02 -0.03,0.01 -0.04,0.01 -0.05,0.02 -0.02,0 -0.03,0 -0.02,0.01 -0.03,0 -0.03,0.01 -0.02,0 -0.03,0 -0.03,0 -0.04,0 -0.03,0.01 -0.03,0 -0.04,0 -0.04,0 -0.03,0 -0.04,0 -0.04,0 -0.04,0 -0.05,0 -0.04,0 -0.05,0 c -2.23,-2.2 -5.39,-2.23 -6.82,-2.23 v -1.25 c 0.84,0 3.14,0 5.04,0.97 v -17.77 c 0,-1.16 0,-1.61 -3.48,-1.61 h -1.31 v -1.25 c 0.62,0.03 4.9,0.14 6.2,0.14 1.08,0 5.47,-0.11 6.23,-0.14 v 1.25 h -1.33 c -3.48,0 -3.48,0.45 -3.48,1.61 z"
             inkscape:connector-curvature="0"
             style="fill:#000000;stroke-width:0" /><path
             id="path3872"
             d="m 781,394.25 0,0.02 0,0.03 0,0.01 0,0.02 0,0.01 -0.01,0.02 0,0.01 -0.01,0.02 -0.01,0.02 -0.01,0.02 -0.01,0.02 -0.02,0.03 -0.01,0.02 -0.02,0.03 -0.02,0.03 -0.03,0.03 -0.02,0.03 -0.03,0.04 -0.02,0.02 -0.01,0.02 -0.02,0.02 -0.02,0.02 -0.02,0.02 -0.02,0.03 -0.02,0.02 -0.02,0.02 -0.02,0.03 -0.03,0.02 -0.02,0.03 -0.03,0.03 -0.03,0.03 -0.02,0.03 -0.03,0.03 -0.03,0.03 -0.03,0.03 -0.03,0.03 -0.04,0.04 -0.03,0.03 -0.04,0.04 -0.03,0.03 -0.04,0.04 -0.04,0.04 c -6.22,6.28 -7.81,15.69 -7.81,23.31 0,8.67 1.89,17.35 8.01,23.56 0.64,0.61 0.64,0.71 0.64,0.86 0,0.35 -0.18,0.49 -0.48,0.49 -0.5,0 -4.99,-3.38 -7.92,-9.7 -2.55,-5.49 -3.14,-11.02 -3.14,-15.21 0,-3.89 0.54,-9.9 3.28,-15.54 2.98,-6.13 7.28,-9.36 7.78,-9.36 0.3,0 0.48,0.14 0.48,0.5 z"
             inkscape:connector-curvature="0"
             style="fill:#000000;stroke-width:0" /><path
             id="path3874"
             d="m 803.32,424.84 -0.13,-0.01 -0.13,-0.01 -0.12,-0.02 -0.13,-0.03 -0.12,-0.03 -0.11,-0.04 -0.12,-0.04 -0.11,-0.04 -0.1,-0.05 -0.11,-0.06 -0.1,-0.06 -0.09,-0.06 -0.1,-0.07 -0.09,-0.07 -0.08,-0.07 -0.08,-0.08 -0.08,-0.08 -0.07,-0.08 -0.07,-0.09 -0.06,-0.08 -0.06,-0.09 -0.06,-0.1 -0.05,-0.09 -0.04,-0.1 -0.04,-0.09 -0.04,-0.1 -0.03,-0.1 -0.02,-0.1 -0.02,-0.1 -0.02,-0.11 -0.01,-0.1 0,-0.1 c 0,-0.7 0.44,-1.44 1.55,-1.44 1.09,0 2.28,0.85 2.28,2.78 0,2.25 -2.14,4.28 -5.92,4.28 -6.58,0 -8.43,-5.07 -8.43,-7.26 0,-3.89 3.69,-4.64 5.13,-4.94 2.59,-0.5 5.19,-1.05 5.19,-3.78 0,-1.3 -1.14,-5.48 -7.13,-5.48 -0.7,0 -4.53,0 -5.69,2.64 1.91,-0.25 3.14,1.25 3.14,2.64 0,1.14 -0.79,1.75 -1.84,1.75 -1.3,0 -2.78,-1.05 -2.78,-3.3 0,-2.84 2.84,-4.83 7.12,-4.83 8.07,0 10.02,6.03 10.02,8.27 0,1.79 -0.95,3.04 -1.55,3.64 -1.34,1.39 -2.79,1.64 -4.98,2.09 -1.8,0.39 -3.78,0.75 -3.78,2.99 0,1.45 1.19,4.48 5.58,4.48 1.23,0 3.73,-0.34 4.48,-2.28 z"
             inkscape:connector-curvature="0"
             style="fill:#000000;stroke-width:0" /><path
             id="path3876"
             d="m 821.63,418.65 -0.01,0.37 0,0.39 -0.01,0.39 -0.01,0.41 -0.04,0.84 -0.06,0.88 -0.09,0.92 -0.1,0.95 -0.14,0.97 -0.16,1.01 -0.2,1.02 -0.23,1.03 -0.26,1.05 -0.31,1.06 -0.35,1.07 -0.39,1.07 -0.21,0.53 -0.23,0.53 -0.24,0.53 -0.25,0.53 c -2.98,6.12 -7.26,9.36 -7.76,9.36 -0.3,0 -0.5,-0.19 -0.5,-0.49 0,-0.15 0,-0.25 0.94,-1.15 4.89,-4.92 7.73,-12.85 7.73,-23.27 0,-8.51 -1.84,-17.28 -8.03,-23.56 -0.64,-0.59 -0.64,-0.7 -0.64,-0.84 0,-0.3 0.2,-0.5 0.5,-0.5 0.5,0 4.97,3.39 7.92,9.71 2.53,5.47 3.13,11 3.13,15.19 z"
             inkscape:connector-curvature="0"
             style="fill:#000000;stroke-width:0" /><path
             id="path3878"
             d="m 870.54,417.65 0.16,0 0.16,0 0.15,0.01 0.08,0 0.08,0.01 0.07,0 0.08,0.01 0.07,0.01 0.07,0.01 0.07,0.02 0.07,0.02 0.07,0.02 0.06,0.02 0.06,0.02 0.06,0.03 0.06,0.03 0.05,0.04 0.05,0.03 0.04,0.05 0.05,0.04 0.03,0.05 0.02,0.03 0.02,0.03 0.01,0.03 0.02,0.03 0.01,0.03 0.02,0.03 0.01,0.04 0.01,0.03 0.01,0.04 0.01,0.04 0,0.04 0.01,0.04 0,0.04 0.01,0.04 0,0.05 0,0.04 c 0,1 -0.91,1 -1.75,1 h -26.95 c -0.85,0 -1.74,0 -1.74,-1 0,-1 0.89,-1 1.74,-1 z"
             inkscape:connector-curvature="0"
             style="fill:#000000;stroke-width:0" /><path
             id="path3880"
             d="m 925.37,440.82 0,0.02 0,0.02 -0.01,0.01 0,0.02 0,0.02 0,0.02 -0.01,0.02 0,0.02 -0.01,0.02 -0.01,0.02 -0.01,0.02 -0.01,0.02 -0.01,0.02 -0.01,0.02 -0.01,0.02 -0.02,0.02 -0.01,0.02 -0.02,0.02 -0.02,0.02 -0.02,0.02 -0.02,0.01 -0.02,0.02 -0.03,0.01 -0.02,0.02 -0.03,0.01 -0.02,0.01 -0.01,0 -0.02,0.01 -0.01,0 -0.02,0.01 -0.02,0 -0.01,0 -0.02,0.01 -0.02,0 -0.02,0 -0.02,0 -0.02,0 -0.02,0 -0.02,0 c -0.14,0 -0.2,-0.04 -0.75,-0.59 l -3.48,-3.84 c -0.44,0.7 -2.74,4.43 -8.27,4.43 -11.11,0 -22.33,-11.01 -22.33,-22.56 0,-7.92 5.53,-13.65 13.61,-13.65 2.19,0 4.44,0.45 6.22,1.18 2.5,1 3.44,2.05 4.34,3.05 0.46,-1.25 1.74,-3.09 2.24,-3.09 0.25,0 0.36,0.15 0.36,0.2 0.09,0.09 0.59,1.98 0.84,3.03 l 0.94,3.84 c 0.2,0.85 0.45,1.69 0.66,2.55 0.54,2.24 0.59,2.33 3.43,2.39 0.25,0 0.8,0.05 0.8,0.99 0,0.36 -0.25,0.54 -0.64,0.54 -1.16,0 -4.09,-0.14 -5.24,-0.14 -1.54,0 -5.43,0.14 -6.98,0.14 -0.44,0 -1.05,0 -1.05,-0.98 0,-0.55 0.41,-0.55 1.5,-0.55 0.05,0 1.5,0 2.64,-0.11 1.3,-0.14 1.55,-0.29 1.55,-0.94 0,-0.45 -0.55,-2.7 -1.05,-4.53 -1.39,-5.48 -7.87,-6.03 -9.62,-6.03 -4.78,0 -10,2.83 -10,10.46 0,1.54 0.48,9.76 5.72,16.25 2.69,3.39 7.53,6.42 12.45,6.42 5.09,0 8.03,-3.83 8.03,-9.61 0,-2 -0.15,-2.05 -0.15,-2.55 0,-0.5 0.54,-0.5 0.75,-0.5 0.64,0 0.64,0.11 0.89,1 z"
             inkscape:connector-curvature="0"
             style="fill:#000000;stroke-width:0" /><path
             id="path3882"
             d="m 944.23,405.11 h -1.18 c -0.1,-0.77 -0.46,-2.83 -0.91,-3.18 -0.26,-0.2 -2.95,-0.2 -3.44,-0.2 h -6.42 c 3.66,3.23 4.88,4.2 6.97,5.84 2.58,2.07 4.98,4.22 4.98,7.54 0,4.21 -3.68,6.79 -8.15,6.79 -4.31,0 -7.25,-3.03 -7.25,-6.23 0,-1.78 1.5,-1.96 1.86,-1.96 0.83,0 1.84,0.6 1.84,1.85 0,0.62 -0.25,1.84 -2.06,1.84 1.08,2.47 3.45,3.24 5.09,3.24 3.49,0 5.3,-2.71 5.3,-5.53 0,-3.04 -2.16,-5.44 -3.28,-6.69 l -8.39,-8.3 c -0.36,-0.31 -0.36,-0.39 -0.36,-1.36 h 14.36 z"
             inkscape:connector-curvature="0"
             style="fill:#000000;stroke-width:0" /><path
             id="path3884"
             d="m 965.56,394.25 0,0.02 0,0.03 0,0.01 0,0.02 -0.01,0.01 0,0.02 -0.01,0.01 0,0.02 -0.01,0.02 -0.01,0.02 -0.01,0.02 -0.02,0.03 -0.01,0.02 -0.02,0.03 -0.02,0.03 -0.03,0.03 -0.02,0.03 -0.03,0.04 -0.02,0.02 -0.02,0.02 -0.01,0.02 -0.02,0.02 -0.02,0.02 -0.02,0.03 -0.02,0.02 -0.02,0.02 -0.03,0.03 -0.02,0.02 -0.02,0.03 -0.03,0.03 -0.03,0.03 -0.02,0.03 -0.03,0.03 -0.03,0.03 -0.03,0.03 -0.04,0.03 -0.03,0.04 -0.03,0.03 -0.04,0.04 -0.03,0.03 -0.04,0.04 -0.04,0.04 c -6.22,6.28 -7.81,15.69 -7.81,23.31 0,8.67 1.89,17.35 8.01,23.56 0.64,0.61 0.64,0.71 0.64,0.86 0,0.35 -0.18,0.49 -0.48,0.49 -0.5,0 -4.99,-3.38 -7.92,-9.7 -2.55,-5.49 -3.14,-11.02 -3.14,-15.21 0,-3.89 0.54,-9.9 3.28,-15.54 2.98,-6.13 7.28,-9.36 7.78,-9.36 0.3,0 0.48,0.14 0.48,0.5 z"
             inkscape:connector-curvature="0"
             style="fill:#000000;stroke-width:0" /><path
             id="path3886"
             d="m 987.88,424.84 -0.13,-0.01 -0.13,-0.01 -0.12,-0.02 -0.13,-0.03 -0.12,-0.03 -0.11,-0.04 -0.12,-0.04 -0.11,-0.04 -0.1,-0.05 -0.11,-0.06 -0.1,-0.06 -0.1,-0.06 -0.09,-0.07 -0.09,-0.07 -0.08,-0.07 -0.08,-0.08 -0.08,-0.08 -0.07,-0.08 -0.07,-0.09 -0.07,-0.08 -0.06,-0.09 -0.05,-0.1 -0.05,-0.09 -0.05,-0.1 -0.04,-0.09 -0.03,-0.1 -0.03,-0.1 -0.03,-0.1 -0.02,-0.1 -0.01,-0.11 -0.01,-0.1 0,-0.1 c 0,-0.7 0.44,-1.44 1.54,-1.44 1.1,0 2.29,0.85 2.29,2.78 0,2.25 -2.14,4.28 -5.92,4.28 -6.58,0 -8.43,-5.07 -8.43,-7.26 0,-3.89 3.69,-4.64 5.13,-4.94 2.59,-0.5 5.18,-1.05 5.18,-3.78 0,-1.3 -1.13,-5.48 -7.12,-5.48 -0.7,0 -4.53,0 -5.69,2.64 1.91,-0.25 3.14,1.25 3.14,2.64 0,1.14 -0.79,1.75 -1.84,1.75 -1.3,0 -2.78,-1.05 -2.78,-3.3 0,-2.84 2.84,-4.83 7.12,-4.83 8.07,0 10.02,6.03 10.02,8.27 0,1.79 -0.95,3.04 -1.55,3.64 -1.34,1.39 -2.8,1.64 -4.98,2.09 -1.8,0.39 -3.78,0.75 -3.78,2.99 0,1.45 1.18,4.48 5.58,4.48 1.23,0 3.73,-0.34 4.48,-2.28 z"
             inkscape:connector-curvature="0"
             style="fill:#000000;stroke-width:0" /><path
             id="path3888"
             d="m 1006.2,418.65 0,0.37 0,0.39 0,0.39 0,0.41 -0.1,0.84 0,0.88 -0.1,0.92 -0.1,0.95 -0.2,0.97 -0.1,1.01 -0.2,1.02 -0.3,1.03 -0.2,1.05 -0.3,1.06 -0.4,1.07 -0.4,1.07 -0.2,0.53 -0.2,0.53 -0.2,0.53 -0.3,0.53 c -2.98,6.12 -7.26,9.36 -7.76,9.36 -0.3,0 -0.5,-0.19 -0.5,-0.49 0,-0.15 0,-0.25 0.93,-1.15 4.93,-4.92 7.73,-12.85 7.73,-23.27 0,-8.51 -1.8,-17.28 -8.02,-23.56 -0.64,-0.59 -0.64,-0.7 -0.64,-0.84 0,-0.3 0.2,-0.5 0.5,-0.5 0.5,0 4.96,3.39 7.96,9.71 2.5,5.47 3.1,11 3.1,15.19 z"
             inkscape:connector-curvature="0"
             style="fill:#000000;stroke-width:0" /><path
             id="path3890"
             d="m 1019,441.78 0,0.16 0,0.17 0,0.16 0,0.08 0,0.08 0,0.08 0,0.08 0,0.07 0,0.07 0,0.07 -0.1,0.07 0,0.07 0,0.06 0,0.06 0,0.06 -0.1,0.06 0,0.05 -0.1,0.05 0,0.05 0,0.04 -0.1,0.04 0,0.01 0,0.02 -0.1,0.02 0,0.01 0,0.01 -0.1,0.02 0,0.01 0,0.01 -0.1,0.01 0,0.01 -0.1,0 0,0.01 0,0 -0.1,0.01 0,0 -0.1,0 c -1,0 -1,-0.89 -1,-1.78 v -46.24 c 0,-0.9 0,-1.79 1,-1.79 1,0 1,0.89 1,1.79 z"
             inkscape:connector-curvature="0"
             style="fill:#000000;stroke-width:0" /><path
             id="path3892"
             d="m 1032.8,441.78 0,0.16 0,0.17 0,0.16 0,0.08 0,0.08 0,0.08 0,0.08 0,0.07 0,0.07 0,0.07 -0.1,0.07 0,0.07 0,0.06 0,0.06 0,0.06 -0.1,0.06 0,0.05 -0.1,0.05 0,0.05 0,0.04 -0.1,0.04 0,0.01 0,0.02 -0.1,0.02 0,0.01 0,0.01 -0.1,0.02 0,0.01 0,0.01 -0.1,0.01 0,0.01 -0.1,0 0,0.01 0,0 -0.1,0.01 0,0 -0.1,0 c -1,0 -1,-0.89 -1,-1.78 v -46.24 c 0,-0.9 0,-1.79 1,-1.79 1,0 1,0.89 1,1.79 z"
             inkscape:connector-curvature="0"
             style="fill:#000000;stroke-width:0" /><path
             id="path3895"
             d="m 1068.1,412.17 0.1,0.12 0,0.11 0,0.11 0.1,0.1 0,0.09 0,0.1 0,0.08 0.1,0.08 0,0.08 0.1,0.07 0,0.07 0,0.06 0.1,0.05 0,0.06 0.1,0.05 0.1,0.04 0.1,0.05 0,0.03 0.1,0.04 0.1,0.03 0.1,0.03 0.1,0.01 0,0.01 0.1,0.01 0.1,0.01 0,0.01 0.1,0.01 0.1,0.01 0,0.01 0.1,0.01 0.1,0 0.1,0.01 0.1,0 0.1,0.01 0.1,0 0,0 0.1,0.01 0.1,0 0.2,0 0.1,0 0.1,0.01 0.1,0 0.1,0 c 0.8,0 1.2,0 1.2,0.76 0,0.14 -0.1,0.49 -0.6,0.49 -1,0 -3.5,-0.14 -4.5,-0.14 -0.6,0 -1.8,0 -2.4,0.03 -0.7,0.04 -1.6,0.11 -2.2,0.11 -0.2,0 -0.8,0 -0.8,-0.77 0,-0.48 0.5,-0.48 1.1,-0.48 0.1,0 0.8,0 1.4,-0.08 0.7,-0.06 0.8,-0.14 0.8,-0.49 0,-0.03 0,-0.23 -0.2,-0.76 l -2,-8.22 h -11.7 l 2,8.08 c 0.3,1.18 0.4,1.47 3.1,1.47 0.6,0 1,0 1,0.76 0,0.14 -0.1,0.49 -0.5,0.49 -1,0 -3.6,-0.14 -4.6,-0.14 -0.6,0 -1.8,0 -2.4,0.03 -0.7,0.04 -1.5,0.11 -2.2,0.11 -0.2,0 -0.7,0 -0.7,-0.77 0,-0.48 0.4,-0.48 1.1,-0.48 0,0 0.7,0 1.3,-0.08 0.8,-0.06 0.8,-0.14 0.8,-0.49 0,-0.06 0,-0.23 -0.1,-0.76 l -4.6,-18.5 c -0.3,-1.19 -0.4,-1.47 -3.1,-1.47 -0.6,0 -1,0 -1,-0.74 0,-0.34 0.2,-0.51 0.5,-0.51 1,0 3.5,0.14 4.5,0.14 0.6,0 1.8,0 2.4,-0.03 0.7,-0.05 1.6,-0.11 2.3,-0.11 0.1,0 0.7,0 0.7,0.73 0,0.52 -0.3,0.52 -1.2,0.52 -0.5,0 -0.6,0 -1.3,0.08 -0.8,0.09 -0.8,0.17 -0.8,0.51 0,0.03 0,0.25 0.2,0.77 l 2.3,9.14 h 11.7 l -2.3,-9.03 c -0.3,-1.19 -0.4,-1.47 -3.1,-1.47 -0.5,0 -1,0 -1,-0.74 0,-0.34 0.2,-0.51 0.6,-0.51 1,0 3.5,0.14 4.5,0.14 0.6,0 1.8,0 2.4,-0.03 0.7,-0.05 1.6,-0.11 2.2,-0.11 0.2,0 0.8,0 0.8,0.73 0,0.52 -0.4,0.52 -1.2,0.52 -0.6,0 -0.7,0 -1.3,0.08 -0.8,0.09 -0.8,0.17 -0.8,0.51 0,0.22 0.1,0.57 0.1,0.77 z"
             inkscape:connector-curvature="0"
             style="fill:#000000;stroke-width:0" /><path
             id="path3897"
             d="m 1088.7,393.13 -0.1,0.06 0,0.05 -0.1,0.06 0,0.06 -0.1,0.05 0,0.06 -0.1,0.05 0,0.05 -0.1,0.1 -0.1,0.1 -0.1,0.1 -0.1,0.09 -0.2,0.19 -0.1,0.09 -0.1,0.1 -0.1,0.1 -0.1,0.1 0,0.05 -0.1,0.05 0,0.05 -0.1,0.06 c -0.7,0.67 -3.1,2.55 -6.5,2.55 -3.4,0 -6,-2.58 -6,-5.66 h 0.8 c 0,2.34 2.2,4.08 4.8,4.08 0.8,0 2.2,-0.08 4.3,-1.86 1,-0.83 1.8,-1.72 2.8,-2.72 h 0 c -1.6,-2.14 -4.1,-4.03 -7,-4.03 -2.6,0 -4.9,1.98 -4.9,4.53 h -0.8 c 0,-3.06 2.6,-5.64 5.9,-5.64 1.9,0 4.9,0.69 7.7,4.17 0.6,-0.65 1,-1.03 1.6,-1.62 0.7,-0.67 3.1,-2.55 6.5,-2.55 3.4,0 6,2.58 6,5.66 h -0.9 c 0,-2.33 -2.1,-4.08 -4.7,-4.08 -0.9,0 -2.2,0.08 -4.3,1.86 -1,0.83 -1.8,1.72 -2.8,2.72 h 0 c 1.6,2.14 4.1,4.04 7,4.04 2.6,0 4.8,-2 4.8,-4.54 h 0.9 c 0,3.06 -2.6,5.64 -6,5.64 -1.8,0 -4.8,-0.67 -7.6,-4.17 z"
             inkscape:connector-curvature="0"
             style="fill:#000000;stroke-width:0" /></g>      </g>
      <g
         transform="translate(-240.25276,84.279892)"
         id="g4155">
        <g
           style="font-style:normal;font-variant:normal;font-weight:normal;font-stretch:normal;letter-spacing:normal;word-spacing:normal;text-anchor:start;fill:none;stroke:#000000;stroke-linecap:butt;stroke-linejoin:miter;stroke-miterlimit:10.43299961;stroke-opacity:1;stroke-dasharray:none;stroke-dashoffset:0"
           id="g4157"
           transform="matrix(1.0629921,0,0,-1.0629921,-186.02362,789.27165)"
           xml:space="preserve"
           stroke-miterlimit="10.433"
           font-style="normal"
           font-variant="normal"
           font-weight="normal"
           font-stretch="normal"
           font-size-adjust="none"
           letter-spacing="normal"
           word-spacing="normal"><path
             style="fill:#000000;stroke-width:0"
             inkscape:connector-curvature="0"
             d="m 493.54,436.39 0.04,0.16 0.04,0.16 0.04,0.15 0.04,0.14 0.04,0.14 0.04,0.13 0.04,0.12 0.05,0.11 0.05,0.11 0.05,0.11 0.06,0.09 0.07,0.09 0.07,0.09 0.08,0.08 0.09,0.07 0.09,0.07 0.11,0.06 0.11,0.06 0.13,0.05 0.14,0.05 0.15,0.04 0.16,0.04 0.09,0.02 0.09,0.02 0.09,0.01 0.1,0.02 0.1,0.01 0.1,0.01 0.11,0.02 0.11,0.01 0.12,0.01 0.12,0 0.13,0.01 0.13,0.01 0.13,0.01 0.14,0 0.14,0 0.15,0.01 0.15,0 0.16,0 0.16,0 0.17,0 c 1.3,0 1.69,0 1.69,1 0,0.55 -0.55,0.55 -0.7,0.55 -1.39,0 -4.97,-0.16 -6.38,-0.16 -1.44,0 -4.98,0.16 -6.42,0.16 -0.39,0 -0.95,0 -0.95,-1 0,-0.55 0.45,-0.55 1.4,-0.55 0.1,0 1.05,0 1.89,-0.09 0.89,-0.11 1.35,-0.16 1.35,-0.8 0,-0.2 -0.05,-0.31 -0.21,-0.95 l -2.98,-12.16 h -15.2 l 2.95,11.71 c 0.44,1.79 0.59,2.29 4.17,2.29 1.3,0 1.71,0 1.71,1 0,0.55 -0.55,0.55 -0.71,0.55 -1.39,0 -4.98,-0.16 -6.37,-0.16 -1.44,0 -4.99,0.16 -6.42,0.16 -0.41,0 -0.96,0 -0.96,-1 0,-0.55 0.46,-0.55 1.39,-0.55 0.11,0 1.05,0 1.91,-0.09 0.89,-0.11 1.34,-0.16 1.34,-0.8 0,-0.2 -0.06,-0.36 -0.2,-0.95 l -6.67,-26.75 c -0.5,-1.95 -0.61,-2.34 -4.55,-2.34 -0.89,0 -1.34,0 -1.34,-1 0,-0.55 0.61,-0.55 0.7,-0.55 1.39,0 4.94,0.16 6.33,0.16 1.05,0 2.14,-0.07 3.19,-0.07 1.09,0 2.18,-0.09 3.23,-0.09 0.41,0 1,0 1,1 0,0.55 -0.45,0.55 -1.39,0.55 -1.84,0 -3.23,0 -3.23,0.89 0,0.29 0.09,0.54 0.14,0.84 l 3.39,13.66 H 486 c -2.09,-8.27 -3.23,-13 -3.43,-13.75 -0.49,-1.6 -1.44,-1.64 -4.53,-1.64 -0.75,0 -1.19,0 -1.19,-1 0,-0.55 0.59,-0.55 0.69,-0.55 1.4,0 4.93,0.16 6.32,0.16 1.05,0 2.14,-0.07 3.19,-0.07 1.11,0 2.2,-0.09 3.25,-0.09 0.39,0 0.99,0 0.99,1 0,0.55 -0.44,0.55 -1.4,0.55 -1.84,0 -3.23,0 -3.23,0.89 0,0.29 0.09,0.54 0.14,0.84 z"
             id="path4159" /><path
             style="fill:#000000;stroke-width:0"
             inkscape:connector-curvature="0"
             d="m 517.06,408.31 -0.17,0.2 -0.16,0.19 -0.15,0.18 -0.15,0.17 -0.15,0.16 -0.13,0.16 -0.13,0.15 -0.13,0.14 -0.12,0.14 -0.12,0.13 -0.12,0.13 -0.11,0.12 -0.11,0.11 -0.1,0.11 -0.11,0.11 -0.1,0.1 -0.2,0.19 -0.19,0.19 -0.2,0.17 -0.2,0.17 -0.2,0.16 -0.22,0.17 -0.11,0.08 -0.11,0.08 -0.12,0.09 -0.12,0.09 c -2.13,1.54 -4.35,2.12 -6.27,2.12 -4.33,0 -7.45,-3.69 -7.45,-7.87 h 0.97 c 0,3.36 2.72,5.96 5.92,5.96 3.25,0 5.47,-2.65 8.81,-6.68 h 0 c -1.39,-2.27 -4.42,-5.8 -8.67,-5.8 -3.59,0 -6.06,3.17 -6.06,6.52 h -0.97 c 0,-4.07 2.98,-7.83 7.34,-7.83 4.85,0 8.24,3.97 9.49,5.81 1.84,-2.16 2.4,-2.75 3.72,-3.69 2.12,-1.53 4.36,-2.12 6.28,-2.12 4.31,0 7.45,3.69 7.45,7.87 h -0.97 c 0,-3.34 -2.72,-5.97 -5.92,-5.97 -3.25,0 -5.48,2.66 -8.83,6.71 h 0 c 1.41,2.25 4.44,5.78 8.69,5.78 3.58,0 6.06,-3.17 6.06,-6.52 h 0.97 c 0,4.08 -3,7.83 -7.34,7.83 -4.85,0 -8.24,-3.97 -9.49,-5.81 z"
             id="path4161" /><polygon
             style="fill:#000000;stroke-width:0"
             points="539.8,419.7 539.8,414.87 555,414.87 555,419.7 "
             id="polygon4163" /><path
             style="fill:#000000;stroke-width:0"
             inkscape:connector-curvature="0"
             d="m 573.24,439.73 -0.05,0.05 -0.05,0.06 -0.04,0.04 -0.05,0.05 -0.04,0.04 -0.04,0.04 -0.04,0.04 -0.03,0.03 -0.04,0.03 -0.04,0.03 -0.03,0.03 -0.04,0.02 -0.04,0.03 -0.03,0.02 -0.04,0.02 -0.04,0.01 -0.04,0.02 -0.04,0.01 -0.05,0.01 -0.04,0.01 -0.05,0.01 -0.05,0.01 -0.06,0.01 -0.06,0 -0.06,0.01 -0.06,0 -0.07,0.01 -0.08,0 -0.08,0 -0.08,0 -0.04,0 -0.05,0 -0.04,0 -0.05,0 h -11.42 v -2.34 h 5.39 v -28.05 c 0,-1.09 -0.05,-1.14 -1.46,-1.3 -1.18,-0.14 -1.29,-0.14 -2.68,-0.14 h -1.25 v -2.34 c 1.9,0.16 4.73,0.16 6.68,0.16 2.1,0 4.67,0 6.72,-0.16 v 2.34 h -1.25 c -0.89,0 -1.73,0.05 -2.64,0.14 -1.44,0.16 -1.48,0.21 -1.48,1.3 v 26.06 l 24.81,-29.2 c 0.5,-0.59 0.55,-0.64 1.34,-0.64 1.35,0 1.35,0.45 1.35,1.59 v 28.8 c 0,1.09 0.04,1.14 1.44,1.3 1.2,0.14 1.29,0.14 2.68,0.14 h 1.25 v 2.34 c -1.89,-0.14 -4.73,-0.14 -6.67,-0.14 -2.09,0 -4.69,0 -6.73,0.14 v -2.34 h 1.25 c 0.9,0 1.75,-0.05 2.64,-0.14 1.45,-0.16 1.5,-0.21 1.5,-1.3 v -20.17 z"
             id="path4165" /><path
             style="fill:#000000;stroke-width:0"
             inkscape:connector-curvature="0"
             d="m 630.12,417.06 -0.02,0.62 -0.04,0.61 -0.06,0.6 -0.1,0.59 -0.11,0.57 -0.15,0.57 -0.17,0.55 -0.2,0.53 -0.22,0.52 -0.24,0.51 -0.27,0.49 -0.3,0.47 -0.32,0.46 -0.35,0.44 -0.36,0.42 -0.4,0.4 -0.41,0.38 -0.45,0.37 -0.46,0.34 -0.49,0.32 -0.51,0.3 -0.53,0.27 -0.56,0.25 -0.57,0.23 -0.6,0.21 -0.63,0.17 -0.64,0.16 -0.67,0.12 -0.69,0.1 -0.7,0.07 -0.73,0.05 -0.76,0.01 v -1.78 c 2.1,0 4.19,-0.8 5.29,-2.55 1.04,-1.68 1.04,-4.43 1.04,-6.82 0,-4.33 0,-9.72 -6.33,-9.72 h 0 c -6.32,0 -6.32,5.39 -6.32,9.72 0,2.25 0,4.78 0.84,6.48 0.95,1.84 3.05,2.89 5.48,2.89 v 1.78 c -8.17,0 -12.7,-5.08 -12.7,-11.7 0,-6.17 4.39,-11.16 12.7,-11.16 8.38,0 12.71,5.03 12.71,11.16 z"
             id="path4167" /><path
             style="fill:#000000;stroke-width:0"
             inkscape:connector-curvature="0"
             d="m 641.91,423 v 5.62 l -8.27,-0.41 v -2.34 c 3.09,0 3.44,0 3.44,-1.94 v -15.39 h -3.44 v -2.34 c 1.75,0.05 3.99,0.16 6.28,0.16 1.89,0 5.08,0 6.88,-0.16 v 2.34 h -4.35 v 8.72 c 0,3.49 1.25,9.56 6.24,9.56 -0.05,-0.04 -0.96,-0.84 -0.96,-2.29 0,-2.03 1.6,-3.03 3.05,-3.03 1.44,0 3.03,1.04 3.03,3.03 0,2.64 -2.68,4.09 -5.28,4.09 -3.48,0 -5.47,-2.5 -6.62,-5.62 z"
             id="path4169" /><path
             style="fill:#000000;stroke-width:0"
             inkscape:connector-curvature="0"
             d="m 661.1,423.93 v -15.39 h -3.43 v -2.34 c 1.4,0.05 4.39,0.16 6.28,0.16 1.95,0 4.89,-0.11 6.28,-0.16 v 2.34 h -3.44 v 10.41 c 0,5.44 4.33,7.87 7.43,7.87 1.7,0 2.79,-1 2.79,-4.82 v -13.46 h -3.44 v -2.34 c 1.4,0.05 4.38,0.16 6.27,0.16 1.95,0 4.89,-0.11 6.28,-0.16 v 2.34 h -3.44 v 10.41 c 0,5.44 4.35,7.87 7.42,7.87 1.71,0 2.8,-1 2.8,-4.82 v -13.46 h -3.43 v -2.34 c 1.38,0.05 4.37,0.16 6.28,0.16 1.93,0 4.87,-0.11 6.26,-0.16 v 2.34 h -3.44 v 12.91 c 0,5.12 -2.53,7.17 -7.67,7.17 -4.53,0 -7.12,-2.5 -8.42,-4.78 -0.98,4.62 -5.58,4.78 -7.47,4.78 -4.33,0 -7.17,-2.25 -8.76,-5.39 v 5.39 l -8.58,-0.41 v -2.34 c 3.09,0 3.43,0 3.43,-1.94 z"
             id="path4171" /><path
             style="fill:#000000;stroke-width:0"
             inkscape:connector-curvature="0"
             d="m 749.15,417.06 -0.01,0.62 -0.04,0.61 -0.07,0.6 -0.09,0.59 -0.12,0.57 -0.14,0.57 -0.17,0.55 -0.2,0.53 -0.22,0.52 -0.25,0.51 -0.27,0.49 -0.29,0.47 -0.33,0.46 -0.34,0.44 -0.37,0.42 -0.39,0.4 -0.42,0.38 -0.44,0.37 -0.46,0.34 -0.49,0.32 -0.51,0.3 -0.53,0.27 -0.56,0.25 -0.58,0.23 -0.6,0.21 -0.62,0.17 -0.65,0.16 -0.66,0.12 -0.69,0.1 -0.71,0.07 -0.73,0.05 -0.75,0.01 v -1.78 c 2.09,0 4.19,-0.8 5.28,-2.55 1.05,-1.68 1.05,-4.43 1.05,-6.82 0,-4.33 0,-9.72 -6.33,-9.72 h 0 c -6.33,0 -6.33,5.39 -6.33,9.72 0,2.25 0,4.78 0.85,6.48 0.95,1.84 3.04,2.89 5.48,2.89 v 1.78 c -8.17,0 -12.7,-5.08 -12.7,-11.7 0,-6.17 4.39,-11.16 12.7,-11.16 8.37,0 12.7,5.03 12.7,11.16 z"
             id="path4173" /><path
             style="fill:#000000;stroke-width:0"
             inkscape:connector-curvature="0"
             d="m 756.66,428.32 h -3.73 v -2.34 h 3.73 v -17.44 h -3.44 v -2.34 c 1.75,0.05 3.99,0.16 6.28,0.16 1.9,0 5.08,0 6.88,-0.16 v 2.34 h -4.35 v 17.44 h 5.74 v 2.34 h -6.03 v 5.04 c 0,5.48 3.79,5.92 5.03,5.92 0.25,0 0.5,0 0.86,-0.1 -0.75,-0.54 -1.16,-1.5 -1.16,-2.43 0,-2.16 1.75,-3.1 3.05,-3.1 1.48,0 3.08,1.05 3.08,3.1 0,2.09 -1.78,4.32 -5.67,4.32 -4.9,0 -10.27,-2.09 -10.27,-7.71 z"
             id="path4176" /><path
             style="fill:#000000;stroke-width:0"
             inkscape:connector-curvature="0"
             d="m 792.55,425.98 v -13.66 c 0,-5.32 4.35,-6.42 7.88,-6.42 3.8,0 6.03,2.85 6.03,6.47 v 2.64 h -2.34 v -2.53 c 0,-3.39 -1.6,-4.59 -2.99,-4.59 -2.89,0 -2.89,3.18 -2.89,4.34 v 13.75 h 7.27 v 2.34 h -7.27 v 9.52 h -2.34 c -0.05,-4.98 -2.49,-9.92 -7.42,-10.06 v -1.8 z"
             id="path4178" /><path
             style="fill:#000000;stroke-width:0"
             inkscape:connector-curvature="0"
             d="m 815.42,408.54 h -3.44 v -2.34 c 1.41,0.05 4.39,0.16 6.28,0.16 1.96,0 4.89,-0.11 6.28,-0.16 v 2.34 h -3.44 v 10.41 c 0,5.44 4.29,7.87 7.43,7.87 1.7,0 2.73,-1.04 2.73,-4.82 v -13.46 h -3.44 v -2.34 c 1.41,0.05 4.4,0.16 6.28,0.16 1.96,0 4.9,-0.11 6.29,-0.16 v 2.34 h -3.44 v 12.91 c 0,5.23 -2.69,7.17 -7.67,7.17 -4.78,0 -7.33,-2.89 -8.47,-4.89 v 17.05 l -8.83,-0.41 v -2.34 c 3.09,0 3.44,0 3.44,-1.94 z"
             id="path4180" /><path
             style="fill:#000000;stroke-width:0"
             inkscape:connector-curvature="0"
             d="m 864.56,417.06 0.1,0 0.1,0 0.09,0 0.09,0 0.09,0 0.08,0.01 0.08,0 0.08,0.01 0.07,0.01 0.07,0.01 0.07,0.01 0.06,0.02 0.06,0.02 0.06,0.02 0.05,0.03 0.06,0.03 0.04,0.03 0.05,0.04 0.04,0.04 0.04,0.05 0.03,0.05 0.03,0.06 0.02,0.03 0.01,0.03 0.01,0.03 0.02,0.04 0.01,0.03 0.01,0.04 0.01,0.04 0.01,0.04 0.01,0.04 0.01,0.05 0,0.04 0.01,0.05 0,0.05 0.01,0.05 0,0.05 0.01,0.06 0,0.05 0,0.06 0,0.06 0,0.06 c 0,1.55 -0.3,5.19 -2.78,7.67 -1.84,1.8 -4.48,2.69 -7.92,2.69 -7.98,0 -12.31,-5.12 -12.31,-11.36 0,-6.67 4.98,-11.5 13,-11.5 7.87,0 10.01,5.28 10.01,6.13 0,0.89 -0.93,0.89 -1.18,0.89 -0.87,0 -0.96,-0.24 -1.25,-1.05 -1.05,-2.39 -3.9,-3.98 -7.13,-3.98 -7.03,0 -7.08,6.62 -7.08,9.17 v 1.64 c 0.11,1.95 0.16,4.05 1.21,5.69 1.29,1.98 3.28,2.59 4.73,2.59 5.83,0 5.92,-6.53 5.97,-8.28 h -11.91 v -1.64 z"
             id="path4182" /><path
             style="fill:#000000;stroke-width:0"
             inkscape:connector-curvature="0"
             d="m 907.61,408.34 v -2.44 l 9.11,0.3 v 2.34 c -3.08,0 -3.44,0 -3.44,1.94 v 30.3 l -8.81,-0.41 v -2.34 c 3.09,0 3.44,0 3.44,-1.94 v -9.72 c -2.49,1.95 -5.08,2.25 -6.74,2.25 l 0.5,-1.8 c 2.85,0 4.85,-1.59 5.94,-3.03 h 0 v -12.47 c -0.66,-0.89 -2.69,-3.62 -6.48,-3.62 -6.08,0 -6.08,6.01 -6.08,9.51 0,2.4 0,5.08 1.29,7.02 1.46,2.09 3.8,2.59 5.33,2.59 l -0.5,1.8 c -7.26,0 -12.5,-4.39 -12.5,-11.41 0,-6.57 4.6,-11.31 11.96,-11.31 3.04,0 5.43,1.19 6.98,2.44 z"
             id="path4184" /><path
             style="fill:#000000;stroke-width:0"
             inkscape:connector-curvature="0"
             d="m 929.73,428.62 -8.67,-0.41 v -2.34 c 2.96,0 3.3,0 3.3,-1.94 v -15.39 h -3.44 v -2.34 c 1.55,0.05 3.99,0.16 6.08,0.16 1.5,0 4.03,-0.11 5.83,-0.16 v 2.34 h -3.1 z"
             id="path4186" /><path
             style="fill:#000000;stroke-width:0"
             inkscape:connector-curvature="0"
             d="m 930.23,436.93 0,0.21 -0.02,0.2 -0.02,0.2 -0.04,0.19 -0.04,0.19 -0.06,0.19 -0.06,0.18 -0.07,0.18 -0.08,0.17 -0.09,0.17 -0.09,0.17 -0.1,0.15 -0.11,0.15 -0.12,0.15 -0.13,0.14 -0.13,0.14 -0.13,0.12 -0.14,0.12 -0.15,0.12 -0.15,0.1 -0.16,0.1 -0.17,0.1 -0.16,0.08 -0.17,0.08 -0.18,0.06 -0.18,0.06 -0.18,0.05 -0.19,0.05 -0.19,0.03 -0.19,0.02 -0.19,0.02 -0.2,0 c -2.14,0 -3.87,-1.75 -3.87,-3.89 0,-2.14 1.73,-3.87 3.87,-3.87 2.1,0 3.89,1.69 3.89,3.87 z"
             id="path4188" /><path
             style="fill:#000000;stroke-width:0"
             inkscape:connector-curvature="0"
             d="m 961.03,425.98 h 5.83 v 2.34 h -6.12 v 5.04 c 0,5.71 4.19,5.92 5.08,5.92 0.4,0 0.61,-0.05 0.9,-0.1 -0.75,-0.54 -1.15,-1.5 -1.15,-2.43 0,-2.16 1.75,-3.1 3.04,-3.1 1.5,0 3.1,1.05 3.1,3.1 0,2.14 -1.85,4.32 -5.74,4.32 -1.75,0 -4.64,-0.25 -6.97,-1.75 -2.09,1.75 -4.89,1.75 -5.98,1.75 l -0.3,-1.79 c 1.55,0 2.64,-0.3 3.19,-0.5 -0.16,-0.1 -1.5,-0.85 -1.5,-2.69 0,-0.84 0.36,-1.89 1.25,-2.48 v -5.29 H 944.9 v 4.88 c 0,4.19 3.29,6.08 7.82,6.08 l 0.3,1.79 c -6.08,0 -13.2,-1.89 -13.2,-7.76 v -4.99 h -3.74 v -2.34 h 3.74 v -17.44 h -3.44 v -2.34 c 1.59,0.05 3.98,0.16 6.12,0.16 2.15,0 4.44,-0.11 6.13,-0.16 v 2.34 h -3.44 v 17.44 h 10.47 v -17.44 h -3.44 v -2.34 c 1.75,0.05 3.99,0.16 6.28,0.16 1.9,0 5.08,0 6.88,-0.16 v 2.34 h -4.35 z"
             id="path4190" /><path
             style="fill:#000000;stroke-width:0"
             inkscape:connector-curvature="0"
             d="m 990.91,417.06 0.1,0 0.1,0 0.09,0 0.09,0 0.09,0 0.08,0.01 0.08,0 0.08,0.01 0.07,0.01 0.07,0.01 0.07,0.01 0.07,0.02 0.06,0.02 0.05,0.02 0.06,0.03 0.05,0.03 0.04,0.03 0.05,0.04 0.04,0.04 0.04,0.05 0.03,0.05 0.03,0.06 0.02,0.03 0.01,0.03 0.02,0.03 0.01,0.04 0.01,0.03 0.01,0.04 0.01,0.04 0.01,0.04 0.01,0.04 0.01,0.05 0,0.04 0.01,0.05 0.01,0.05 0,0.05 0,0.05 0.01,0.06 0,0.05 0,0.06 0,0.06 0,0.06 c 0,1.55 -0.29,5.19 -2.78,7.67 -1.84,1.8 -4.48,2.69 -7.92,2.69 -7.98,0 -12.31,-5.12 -12.31,-11.36 0,-6.67 4.98,-11.5 13,-11.5 7.87,0 10.01,5.28 10.01,6.13 0,0.89 -0.93,0.89 -1.18,0.89 -0.86,0 -0.96,-0.24 -1.25,-1.05 -1.05,-2.39 -3.89,-3.98 -7.13,-3.98 -7.03,0 -7.08,6.62 -7.08,9.17 v 1.64 c 0.11,1.95 0.16,4.05 1.21,5.69 1.29,1.98 3.28,2.59 4.73,2.59 5.83,0 5.92,-6.53 5.97,-8.28 h -11.91 v -1.64 z"
             id="path4192" /><path
             style="fill:#000000;stroke-width:0"
             inkscape:connector-curvature="0"
             d="m 1004.3,423 v 5.62 l -8.28,-0.41 v -2.34 c 3.09,0 3.43,0 3.43,-1.94 v -15.39 h -3.43 v -2.34 c 1.75,0.05 3.98,0.16 6.28,0.16 1.9,0 5.1,0 6.9,-0.16 v 2.34 h -4.4 v 8.72 c 0,3.49 1.3,9.56 6.3,9.56 -0.1,-0.04 -1,-0.84 -1,-2.29 0,-2.03 1.6,-3.03 3.1,-3.03 1.4,0 3,1.04 3,3.03 0,2.64 -2.7,4.09 -5.3,4.09 -3.5,0 -5.5,-2.5 -6.6,-5.62 z"
             id="path4194" /><path
             style="fill:#000000;stroke-width:0"
             inkscape:connector-curvature="0"
             d="m 1040.8,417.06 0.1,0 0.1,0 0.1,0 0.1,0 0.1,0 0.1,0.01 0.1,0 0,0.01 0.1,0.01 0.1,0.01 0,0.01 0.1,0.02 0.1,0.02 0,0.02 0.1,0.03 0,0.03 0.1,0.03 0,0.04 0.1,0.04 0,0.05 0,0.05 0.1,0.06 0,0.03 0,0.03 0,0.03 0,0.04 0,0.03 0,0.04 0.1,0.04 0,0.04 0,0.04 0,0.05 0,0.04 0,0.05 0,0.05 0,0.05 0,0.05 0,0.06 0,0.05 0,0.06 0,0.06 0,0.06 c 0,1.55 -0.3,5.19 -2.8,7.67 -1.8,1.8 -4.4,2.69 -7.9,2.69 -8,0 -12.3,-5.12 -12.3,-11.36 0,-6.67 5,-11.5 13,-11.5 7.9,0 10,5.28 10,6.13 0,0.89 -0.9,0.89 -1.2,0.89 -0.8,0 -0.9,-0.24 -1.2,-1.05 -1.1,-2.39 -3.9,-3.98 -7.1,-3.98 -7.1,0 -7.1,6.62 -7.1,9.17 v 1.64 c 0.1,1.95 0.1,4.05 1.2,5.69 1.3,1.98 3.3,2.59 4.7,2.59 5.8,0 5.9,-6.53 6,-8.28 h -11.9 v -1.64 z"
             id="path4196" /><path
             style="fill:#000000;stroke-width:0"
             inkscape:connector-curvature="0"
             d="m 1049.8,423.93 v -15.39 h -3.5 v -2.34 c 1.4,0.05 4.4,0.16 6.3,0.16 2,0 4.9,-0.11 6.3,-0.16 v 2.34 h -3.5 v 10.41 c 0,5.44 4.3,7.87 7.5,7.87 1.7,0 2.7,-1.04 2.7,-4.82 v -13.46 h -3.4 v -2.34 c 1.4,0.05 4.4,0.16 6.2,0.16 2,0 4.9,-0.11 6.3,-0.16 v 2.34 h -3.4 v 12.91 c 0,5.23 -2.7,7.17 -7.7,7.17 -4.8,0 -7.4,-2.84 -8.7,-5.39 v 5.39 l -8.6,-0.41 v -2.34 c 3.1,0 3.5,0 3.5,-1.94 z"
             id="path4198" /><path
             style="fill:#000000;stroke-width:0"
             inkscape:connector-curvature="0"
             d="m 1093.8,426.48 -0.1,-0.08 0,-0.07 -0.1,-0.08 -0.1,-0.08 0,-0.08 -0.1,-0.08 -0.1,-0.08 0,-0.08 -0.1,-0.08 0,-0.08 -0.1,-0.09 0,-0.08 0,-0.08 -0.1,-0.08 0,-0.08 0,-0.08 0,-0.07 -0.1,-0.08 0,-0.08 0,-0.07 0,-0.07 0,-0.07 0,-0.07 -0.1,-0.07 0,-0.06 0,-0.06 0,-0.06 0,-0.06 0,-0.05 0,-0.05 0,-0.05 0,-0.05 c 0,-2.18 1.8,-3.14 3.1,-3.14 1.6,0 3.2,1.05 3.2,3.14 0,4.28 -5.8,4.58 -8.7,4.58 -8.9,0 -12.6,-5.72 -12.6,-11.5 0,-6.62 4.7,-11.36 12.3,-11.36 8.1,0 9.6,5.78 9.6,6.13 0,0.7 -0.7,0.7 -1.2,0.7 -0.9,0 -0.9,-0.11 -1.2,-0.75 -1.3,-3.14 -3.7,-4.09 -6.2,-4.09 -6.9,0 -6.9,7.32 -6.9,9.62 0,2.78 0,9.27 6.4,9.27 1.7,0 2.6,-0.16 3.2,-0.3 z"
             id="path4200" /><path
             style="fill:#000000;stroke-width:0"
             inkscape:connector-curvature="0"
             d="m 1124.3,417.06 0.1,0 0.1,0 0.1,0 0.1,0 0.1,0 0.1,0.01 0.1,0 0,0.01 0.1,0.01 0.1,0.01 0.1,0.01 0,0.02 0.1,0.02 0,0.02 0.1,0.03 0,0.03 0.1,0.03 0,0.04 0.1,0.04 0,0.05 0,0.05 0.1,0.06 0,0.03 0,0.03 0,0.03 0,0.04 0,0.03 0.1,0.04 0,0.04 0,0.04 0,0.04 0,0.05 0,0.04 0,0.05 0,0.05 0,0.05 0,0.05 0,0.06 0,0.05 0,0.06 0,0.06 0,0.06 c 0,1.55 -0.3,5.19 -2.7,7.67 -1.9,1.8 -4.5,2.69 -8,2.69 -8,0 -12.3,-5.12 -12.3,-11.36 0,-6.67 5,-11.5 13,-11.5 7.9,0 10,5.28 10,6.13 0,0.89 -0.9,0.89 -1.2,0.89 -0.8,0 -0.9,-0.24 -1.2,-1.05 -1.1,-2.39 -3.9,-3.98 -7.1,-3.98 -7.1,0 -7.1,6.62 -7.1,9.17 v 1.64 c 0.1,1.95 0.1,4.05 1.2,5.69 1.3,1.98 3.3,2.59 4.7,2.59 5.9,0 6,-6.53 6,-8.28 h -11.9 v -1.64 z"
             id="path4202" /><path
             style="fill:#000000;stroke-width:0"
             inkscape:connector-curvature="0"
             d="m 1157.2,420.84 -0.2,0.03 -0.2,0.04 -0.2,0.04 -0.2,0.04 -0.2,0.04 -0.2,0.04 -0.4,0.1 -0.4,0.11 -0.2,0.06 -0.2,0.07 -0.2,0.07 -0.2,0.07 -0.2,0.08 -0.2,0.09 -0.2,0.09 -0.2,0.1 -0.2,0.11 -0.2,0.11 -0.1,0.11 -0.2,0.13 -0.1,0.13 -0.2,0.14 -0.1,0.15 -0.1,0.16 -0.1,0.17 0,0.08 0,0.09 -0.1,0.09 0,0.1 0,0.09 -0.1,0.1 0,0.1 0,0.11 0,0.1 0,0.11 c 0,3.08 4.6,3.08 5.6,3.08 3.7,0 5.6,-1.44 5.9,-4.17 0,-0.75 0.1,-1 1.1,-1 1.2,0 1.2,0.25 1.2,1.39 v 3.98 c 0,0.95 0,1.39 -0.9,1.39 -0.2,0 -0.3,0 -2.2,-0.94 -1.3,0.64 -3.1,0.94 -5.1,0.94 -1.5,0 -9.1,0 -9.1,-6.51 0,-2 1,-3.35 2,-4.19 2,-1.75 3.8,-2.05 7.7,-2.74 1.8,-0.31 5.5,-0.95 5.5,-3.89 0,-3.73 -4.6,-3.73 -5.7,-3.73 -5.3,0 -6.5,3.62 -7.1,5.78 -0.3,0.69 -0.5,0.69 -1.2,0.69 -1.2,0 -1.2,-0.3 -1.2,-1.44 v -5.44 c 0,-0.93 0,-1.39 0.9,-1.39 0.3,0 0.4,0 1.5,0.75 0,0 1.1,0.75 1.3,0.85 2.3,-1.6 4.8,-1.6 5.8,-1.6 1.6,0 9.2,0 9.2,7.27 0,2.15 -1,3.89 -2.7,5.28 -1.9,1.45 -3.5,1.75 -7.4,2.39 z"
             id="path4204" /><path
             style="fill:#000000;stroke-width:0"
             inkscape:connector-curvature="0"
             d="m 1194.4,424.93 0.1,0.13 0.1,0.12 0,0.06 0,0.05 0.1,0.05 0,0.05 0.1,0.05 0,0.05 0.1,0.04 0,0.04 0.1,0.04 0.1,0.04 0,0.04 0.1,0.03 0.1,0.03 0.1,0.03 0.1,0.03 0.2,0.02 0.1,0.03 0.1,0.01 0,0.01 0.1,0.01 0.1,0.01 0.1,0.01 0.1,0.01 0,0 0.1,0.01 0.1,0.01 0.1,0 0.1,0.01 0.1,0 0.2,0.01 0.1,0 0.1,0.01 0.1,0 0.1,0 0.2,0.01 0.1,0 0.1,0 0.2,0 0.1,0 v 2.34 c -1.2,-0.11 -2.7,-0.15 -3.9,-0.15 -1.3,0 -3.5,0.11 -4.5,0.15 v -2.34 c 0.1,0 2.3,0 2.3,-0.59 0,-0.07 -0.2,-0.55 -0.2,-0.61 l -5.8,-12.25 -6.3,13.45 h 2.7 v 2.34 c -1.6,-0.11 -6.1,-0.15 -6.2,-0.15 -1.4,0 -3.6,0.11 -5.7,0.15 v -2.34 h 3.2 l 9.3,-19.78 -1.1,-2.39 c -1.1,-2.39 -2.7,-5.78 -6.2,-5.78 -0.7,0 -0.8,0.04 -1.2,0.2 0.4,0.2 1.6,0.89 1.6,2.64 0,1.64 -1.2,2.84 -2.9,2.84 -1.4,0 -2.9,-0.95 -2.9,-2.89 0,-2.54 2.4,-4.59 5.4,-4.59 3.8,0 6.7,3.09 8,5.94 z"
             id="path4206" /><path
             style="fill:#000000;stroke-width:0"
             inkscape:connector-curvature="0"
             d="m 1210,420.84 -0.2,0.03 -0.2,0.04 -0.2,0.04 -0.2,0.04 -0.2,0.04 -0.2,0.04 -0.4,0.1 -0.4,0.11 -0.2,0.06 -0.2,0.07 -0.2,0.07 -0.2,0.07 -0.2,0.08 -0.2,0.09 -0.2,0.09 -0.2,0.1 -0.2,0.11 -0.2,0.11 -0.1,0.11 -0.2,0.13 -0.1,0.13 -0.2,0.14 -0.1,0.15 -0.1,0.16 -0.1,0.17 0,0.08 0,0.09 -0.1,0.09 0,0.1 0,0.09 -0.1,0.1 0,0.1 0,0.11 0,0.1 0,0.11 c 0,3.08 4.6,3.08 5.6,3.08 3.7,0 5.6,-1.44 5.9,-4.17 0,-0.75 0.1,-1 1.1,-1 1.2,0 1.2,0.25 1.2,1.39 v 3.98 c 0,0.95 0,1.39 -0.9,1.39 -0.2,0 -0.3,0 -2.2,-0.94 -1.3,0.64 -3.1,0.94 -5.1,0.94 -1.5,0 -9.1,0 -9.1,-6.51 0,-2 1,-3.35 2,-4.19 1.9,-1.75 3.8,-2.05 7.7,-2.74 1.8,-0.31 5.5,-0.95 5.5,-3.89 0,-3.73 -4.6,-3.73 -5.7,-3.73 -5.3,0 -6.6,3.62 -7.1,5.78 -0.3,0.69 -0.5,0.69 -1.2,0.69 -1.2,0 -1.2,-0.3 -1.2,-1.44 v -5.44 c 0,-0.93 0,-1.39 0.9,-1.39 0.3,0 0.4,0 1.5,0.75 0,0 1.1,0.75 1.3,0.85 2.2,-1.6 4.8,-1.6 5.8,-1.6 1.6,0 9.2,0 9.2,7.27 0,2.15 -1,3.89 -2.7,5.28 -1.9,1.45 -3.5,1.75 -7.4,2.39 z"
             id="path4208" /><path
             style="fill:#000000;stroke-width:0"
             inkscape:connector-curvature="0"
             d="m 1227.2,425.98 v -13.66 c 0,-5.32 4.3,-6.42 7.8,-6.42 3.8,0 6.1,2.85 6.1,6.47 v 2.64 h -2.4 v -2.53 c 0,-3.39 -1.6,-4.59 -3,-4.59 -2.9,0 -2.9,3.18 -2.9,4.34 v 13.75 h 7.3 v 2.34 h -7.3 v 9.52 h -2.3 c -0.1,-4.98 -2.5,-9.92 -7.4,-10.06 v -1.8 z"
             id="path4210" /><path
             style="fill:#000000;stroke-width:0"
             inkscape:connector-curvature="0"
             d="m 1267.4,417.06 0.1,0 0.1,0 0.1,0 0,0 0.1,0 0.1,0.01 0.1,0 0.1,0.01 0,0.01 0.1,0.01 0.1,0.01 0,0.02 0.1,0.02 0.1,0.02 0,0.03 0.1,0.03 0,0.03 0.1,0.04 0,0.04 0,0.05 0.1,0.05 0,0.06 0,0.03 0,0.03 0.1,0.03 0,0.04 0,0.03 0,0.04 0,0.04 0,0.04 0,0.04 0,0.05 0,0.04 0,0.05 0,0.05 0,0.05 0.1,0.05 0,0.06 0,0.05 0,0.06 0,0.06 0,0.06 c 0,1.55 -0.3,5.19 -2.8,7.67 -1.9,1.8 -4.5,2.69 -7.9,2.69 -8,0 -12.4,-5.12 -12.4,-11.36 0,-6.67 5,-11.5 13,-11.5 7.9,0 10.1,5.28 10.1,6.13 0,0.89 -1,0.89 -1.2,0.89 -0.9,0 -1,-0.24 -1.3,-1.05 -1,-2.39 -3.9,-3.98 -7.1,-3.98 -7,0 -7.1,6.62 -7.1,9.17 v 1.64 c 0.1,1.95 0.2,4.05 1.2,5.69 1.3,1.98 3.3,2.59 4.8,2.59 5.8,0 5.9,-6.53 5.9,-8.28 h -11.9 v -1.64 z"
             id="path4212" /><path
             style="fill:#000000;stroke-width:0"
             inkscape:connector-curvature="0"
             d="m 1276.3,423.93 v -15.39 h -3.4 v -2.34 c 1.4,0.05 4.4,0.16 6.2,0.16 2,0 4.9,-0.11 6.3,-0.16 v 2.34 h -3.4 v 10.41 c 0,5.44 4.3,7.87 7.4,7.87 1.7,0 2.8,-1 2.8,-4.82 v -13.46 h -3.4 v -2.34 c 1.4,0.05 4.3,0.16 6.2,0.16 2,0 4.9,-0.11 6.3,-0.16 v 2.34 h -3.4 v 10.41 c 0,5.44 4.3,7.87 7.4,7.87 1.7,0 2.8,-1 2.8,-4.82 v -13.46 h -3.4 v -2.34 c 1.4,0.05 4.3,0.16 6.2,0.16 2,0 4.9,-0.11 6.3,-0.16 v 2.34 h -3.4 v 12.91 c 0,5.12 -2.6,7.17 -7.7,7.17 -4.5,0 -7.1,-2.5 -8.4,-4.78 -1,4.62 -5.6,4.78 -7.5,4.78 -4.3,0 -7.2,-2.25 -8.8,-5.39 v 5.39 l -8.5,-0.41 v -2.34 c 3,0 3.4,0 3.4,-1.94 z"
             id="path4214" /></g>      </g>
    </g>
  </g>
</svg>
